<svg xmlns="http://www.w3.org/2000/svg" viewBox="0 0 500 500"><g id="freepik--background-complete--inject-146"><path d="M120.36,106.43c8.47,13,2.86,32.83-12.6,42.87s-34.56,6.58-43-6.46.07-26.23,15.52-36.28c12.88-8.37,25.24-12.53,34.26-5.69A25.55,25.55,0,0,1,120.36,106.43Z" style="fill:#e0e0e0"></path><ellipse cx="90.56" cy="121.56" rx="32.28" ry="19.62" transform="translate(-51.62 68.99) rotate(-33.02)" style="fill:#ebebeb"></ellipse><path d="M117,103c-.22.82-4,.09-9.46,2.27A28.1,28.1,0,0,0,99,110.5a21.25,21.25,0,0,0-3.71,4.39c-1.13,1.74-2.2,3.73-3.4,5.84-.6,1.06-1.23,2.12-1.91,3.16s-1.44,2-2.17,3a40,40,0,0,1-4.81,5A33.62,33.62,0,0,1,78,135.54c-.83.53-1.7.94-2.51,1.36a25.78,25.78,0,0,1-2.43,1,19.78,19.78,0,0,1-7.78,1.35,7.53,7.53,0,0,1-2.13-.36c-.47-.17-.72-.35-.71-.54,0-.87,3.88-1.13,9-4A41.67,41.67,0,0,0,87.09,118c1.16-2,2.33-4.16,3.73-6.15a24.3,24.3,0,0,1,4.92-5.27,26.61,26.61,0,0,1,10.74-5.07,17.19,17.19,0,0,1,8,0q.69.2,1.2.39a5.38,5.38,0,0,1,.82.45C116.9,102.58,117.09,102.81,117,103Z" style="fill:#e0e0e0"></path><path d="M97.52,105.44A17.42,17.42,0,0,1,96,106.58a24.6,24.6,0,0,0-3.7,3.62A47.67,47.67,0,0,0,88,116.59c-1.47,2.5-3,5.34-4.88,8.14a25.23,25.23,0,0,1-6.72,6.74,43.35,43.35,0,0,1-6.77,3.8c-2,.92-3.67,1.58-4.82,2l-1.33.49a1.57,1.57,0,0,1-.48.14s.14-.1.44-.24l1.29-.58c1.12-.51,2.76-1.21,4.74-2.17a46.08,46.08,0,0,0,6.66-3.86,27.78,27.78,0,0,0,3.47-2.9,27.2,27.2,0,0,0,3.09-3.74c1.88-2.76,3.39-5.59,4.9-8.1A46.13,46.13,0,0,1,92,110a22.86,22.86,0,0,1,3.86-3.55c.51-.34.94-.57,1.22-.74A2.48,2.48,0,0,1,97.52,105.44Z" style="fill:#ebebeb"></path><path d="M115,103.54a7.12,7.12,0,0,1-1.34.32c-.87.18-2.12.48-3.63,1a29.82,29.82,0,0,0-10.69,6c-3.61,3.21-5.48,7.32-7.14,10A26,26,0,0,1,90.06,124a10.18,10.18,0,0,1-.67.78c-.16.17-.26.25-.27.24a11.68,11.68,0,0,1,.78-1.14,36.7,36.7,0,0,0,1.95-3.21c.78-1.38,1.65-3.07,2.75-4.88A23.64,23.64,0,0,1,99,110.42a28.35,28.35,0,0,1,10.92-6,27,27,0,0,1,3.7-.8A6.77,6.77,0,0,1,115,103.54Z" style="fill:#ebebeb"></path><path d="M119.57,109.47a3.7,3.7,0,0,1,.09.64,14.24,14.24,0,0,1,0,1.87,23.55,23.55,0,0,1-1.37,6.72,34.3,34.3,0,0,1-4.87,8.92,35.09,35.09,0,0,1-4,4.53,51.56,51.56,0,0,1-5,4,54.54,54.54,0,0,1-20.59,9.05,28.06,28.06,0,0,1-6.84.49,13.81,13.81,0,0,1-1.85-.2,3.16,3.16,0,0,1-.64-.13s.9.08,2.5.13a30.16,30.16,0,0,0,6.76-.65,56.07,56.07,0,0,0,20.36-9.12A37,37,0,0,0,118,118.57a25.38,25.38,0,0,0,1.51-6.6C119.62,110.36,119.51,109.47,119.57,109.47Z" style="fill:#fafafa"></path><g style="opacity:0.2"><path d="M98.05,101.36a1.43,1.43,0,0,0-1-.18A36.22,36.22,0,0,0,73.54,112c-5.14,5.29-9.73,12.22-10.32,19.18-.2,2.37,1.77,3.65,4,2.71,4.41-1.9,10.64-5.18,13.73-9.19,3.44-4.46,4.89-10.2,8.26-14.71a21.58,21.58,0,0,1,7.7-6.4,3.24,3.24,0,0,0,1.24-.85A1,1,0,0,0,98.05,101.36Z" style="fill:#fff"></path></g><path d="M395.08,116.4c-8.21,11.68-27,13.66-40.81,3.93s-17.42-27.18-9.21-38.87,22.36-8.91,36.19.82c11.53,8.11,19.31,17.21,16.57,27.23A23.89,23.89,0,0,1,395.08,116.4Z" style="fill:#e0e0e0"></path><ellipse cx="372.01" cy="96.2" rx="18.01" ry="29.62" transform="translate(79.37 345.21) rotate(-54.89)" style="fill:#ebebeb"></ellipse><path d="M396.87,112.4c-.78.09-1.45-3.4-5.17-7.27a25.44,25.44,0,0,0-7.37-5.49,19.53,19.53,0,0,0-5-1.66c-1.87-.37-3.93-.6-6.14-.9-1.11-.15-2.22-.32-3.34-.54a33,33,0,0,1-3.29-.84,36.66,36.66,0,0,1-5.88-2.39,31.58,31.58,0,0,1-4.87-3c-.73-.53-1.38-1.13-2-1.67s-1.2-1.12-1.7-1.72a18.24,18.24,0,0,1-3.81-6.16,7.17,7.17,0,0,1-.42-1.94c0-.46.05-.73.22-.79.73-.3,2.28,2.91,6.5,6.28A38.3,38.3,0,0,0,373.87,92c2.14.3,4.34.57,6.52,1.08a22.11,22.11,0,0,1,6.16,2.39,24.37,24.37,0,0,1,8,7.41,15.79,15.79,0,0,1,2.76,6.78c0,.44.06.82.07,1.15a4.74,4.74,0,0,1-.1.86C397.18,112.14,397.05,112.38,396.87,112.4Z" style="fill:#e0e0e0"></path><path d="M388.11,96.61a12.67,12.67,0,0,1-1.49-.91,22.35,22.35,0,0,0-4.35-1.9,42.89,42.89,0,0,0-6.91-1.47c-2.63-.4-5.57-.7-8.6-1.37a23.63,23.63,0,0,1-8-3.42,40.41,40.41,0,0,1-5.56-4.48c-1.47-1.4-2.59-2.59-3.36-3.42l-.88-1c-.19-.23-.29-.35-.28-.37a11.31,11.31,0,0,1,1.3,1.19c.82.78,2,1.93,3.47,3.29A42.31,42.31,0,0,0,359,87.13a23.54,23.54,0,0,0,7.89,3.32c3,.66,5.92,1,8.57,1.4a41.59,41.59,0,0,1,6.94,1.6,19.84,19.84,0,0,1,4.34,2.08,12.44,12.44,0,0,1,1,.78A1.68,1.68,0,0,1,388.11,96.61Z" style="fill:#ebebeb"></path><path d="M395.7,110.83c-.08,0-.95-1.55-2.8-3.8a27.49,27.49,0,0,0-8.75-7c-4-2-8.1-2.16-11-2.66a23.28,23.28,0,0,1-3.4-.73,4.52,4.52,0,0,1-1.19-.46,8.46,8.46,0,0,1,1.24.27,33.14,33.14,0,0,0,3.4.56c1.44.18,3.18.34,5.1.67a21.11,21.11,0,0,1,6,1.89,26,26,0,0,1,8.81,7.27,24.12,24.12,0,0,1,1.94,2.89A4.94,4.94,0,0,1,395.7,110.83Z" style="fill:#ebebeb"></path><path d="M392.22,116.76a2.15,2.15,0,0,1-.51.31,14.51,14.51,0,0,1-1.57.68,21.56,21.56,0,0,1-6.19,1.14,31.37,31.37,0,0,1-9.27-1.09,32.28,32.28,0,0,1-5.22-1.84,46.86,46.86,0,0,1-5.17-2.9A49.81,49.81,0,0,1,349.54,98.6,25.57,25.57,0,0,1,346.78,93a14.09,14.09,0,0,1-.45-1.65,2.45,2.45,0,0,1-.11-.59c.06,0,.25.79.76,2.17a27.05,27.05,0,0,0,2.87,5.52,51.37,51.37,0,0,0,14.72,14.22,33.8,33.8,0,0,0,19.36,5.9,22.76,22.76,0,0,0,6.14-1C391.48,117.11,392.2,116.72,392.22,116.76Z" style="fill:#fafafa"></path><g style="opacity:0.2"><path d="M391.77,95.67a1.29,1.29,0,0,0-.18-.89,33.21,33.21,0,0,0-17.25-16.35c-6.26-2.57-13.73-4.1-19.86-2.23-2.09.64-2.5,2.75-1,4.29,3.12,3.11,8,7.3,12.51,8.56,5,1.41,10.36.68,15.36,2a19.67,19.67,0,0,1,8.07,4.36,3.06,3.06,0,0,0,1.16.77A.92.92,0,0,0,391.77,95.67Z" style="fill:#fff"></path></g><path d="M335.82,37.26c.17,10.39-10,19.59-22.32,19.8s-21.89-8.52-22.06-18.91,9.33-14.82,21.63-15C323.32,23,331.8,25,334.48,32A17.26,17.26,0,0,1,335.82,37.26Z" style="fill:#e0e0e0"></path><path d="M335.14,34.9c.12,7.24-9.42,13.27-21.32,13.47s-21.65-5.5-21.77-12.74,9.42-13.26,21.32-13.46S335,27.67,335.14,34.9Z" style="fill:#ebebeb"></path><path d="M335.16,34.14c-.42.39-2.31-1.37-6.16-2.06a18.82,18.82,0,0,0-6.69-.07,14.45,14.45,0,0,0-3.65,1.17c-1.26.58-2.57,1.33-4,2.1-.71.39-1.44.77-2.19,1.12s-1.54.64-2.29.91a26.79,26.79,0,0,1-4.49,1.12,23.3,23.3,0,0,1-4.17.29c-.65,0-1.29-.07-1.9-.12s-1.19-.15-1.73-.28a13.09,13.09,0,0,1-4.88-2,4.47,4.47,0,0,1-1.08-1c-.21-.26-.28-.45-.21-.56.3-.48,2.59.74,6.51.91A27.77,27.77,0,0,0,312.9,32a47.75,47.75,0,0,1,4.29-2.16,16.13,16.13,0,0,1,4.65-1.24,17.77,17.77,0,0,1,7.88.94,11.52,11.52,0,0,1,4.52,2.8c.21.24.39.46.54.65s.23.39.31.55C335.23,33.86,335.25,34.06,335.16,34.14Z" style="fill:#e0e0e0"></path><path d="M323.24,28.61a20,20,0,0,0-4.62.9,32.33,32.33,0,0,0-4.68,2.1c-1.72.9-3.57,2-5.65,2.89a17.07,17.07,0,0,1-6.22,1.43,27.58,27.58,0,0,1-5.19-.27c-1.46-.19-2.64-.42-3.44-.59a6.24,6.24,0,0,1-1.25-.31,6.07,6.07,0,0,1,1.28.11c.82.11,2,.28,3.45.43a33.09,33.09,0,0,0,5.13.16,17.14,17.14,0,0,0,6-1.44c2-.89,3.9-2,5.64-2.83a30.18,30.18,0,0,1,4.78-2,14.46,14.46,0,0,1,3.46-.61A5.51,5.51,0,0,1,323.24,28.61Z" style="fill:#ebebeb"></path><path d="M333.8,33.72c0,.08-1.24-.47-3.29-1a20.14,20.14,0,0,0-8.14-.36c-3.16.53-5.67,2.18-7.57,3.1a15.39,15.39,0,0,1-2.33,1,3.19,3.19,0,0,1-.9.22c0-.08,1.22-.49,3.05-1.55s4.36-2.73,7.67-3.3a18.65,18.65,0,0,1,8.32.53,16.71,16.71,0,0,1,2.37.89A3,3,0,0,1,333.8,33.72Z" style="fill:#ebebeb"></path><path d="M334.29,38.7s0,.15-.15.41a10.55,10.55,0,0,1-.62,1.08,15.9,15.9,0,0,1-3.15,3.35,24.45,24.45,0,0,1-9.79,4.51,34.64,34.64,0,0,1-4.3.51,36,36,0,0,1-14.89-2.21,18.48,18.48,0,0,1-4-2.17,8.37,8.37,0,0,1-1-.78c-.22-.19-.32-.3-.31-.31s.49.34,1.39.93a20.67,20.67,0,0,0,4.06,2,37.64,37.64,0,0,0,14.72,2,24.7,24.7,0,0,0,13.89-4.79,17.41,17.41,0,0,0,3.21-3.18C334,39.21,334.25,38.68,334.29,38.7Z" style="fill:#fafafa"></path><g style="opacity:0.2"><path d="M325,26.49a.94.94,0,0,0-.49-.45,24.15,24.15,0,0,0-17.14-2.22c-4.78,1.17-9.84,3.47-12.64,7.2A1.76,1.76,0,0,0,296,34c3.17.49,7.86.84,11-.33,3.53-1.31,6.38-4,9.89-5.4a14.33,14.33,0,0,1,6.61-.89,2.15,2.15,0,0,0,1,0A.67.67,0,0,0,325,26.49Z" style="fill:#fff"></path></g><path d="M172.05,38.71c5.83,4.37,6.56,14,1.39,20.88s-14.13,8.47-20,4.1-4.2-11.54,1-18.45c4.31-5.75,9.07-9.58,14.14-8A12.21,12.21,0,0,1,172.05,38.71Z" style="fill:#e0e0e0"></path><ellipse cx="161.4" cy="50.17" rx="15.11" ry="9.19" transform="translate(24.52 149.33) rotate(-53.19)" style="fill:#ebebeb"></ellipse><path d="M170,37.74c0,.39-1.76.69-3.79,2.52a13.16,13.16,0,0,0-2.91,3.68,9.72,9.72,0,0,0-.92,2.53c-.22,1-.37,2-.56,3.12-.09.56-.19,1.13-.32,1.69a17,17,0,0,1-.48,1.67,18.53,18.53,0,0,1-1.31,3,15.24,15.24,0,0,1-1.63,2.44c-.28.36-.59.68-.88,1s-.59.59-.9.84a9.36,9.36,0,0,1-3.2,1.85,3.52,3.52,0,0,1-1,.18c-.24,0-.37,0-.4-.12-.14-.38,1.52-1.12,3.3-3.22a19.46,19.46,0,0,0,4.25-9.72c.18-1.09.36-2.21.65-3.31a11.32,11.32,0,0,1,1.31-3.11,12.49,12.49,0,0,1,3.9-4,8.09,8.09,0,0,1,3.5-1.3c.23,0,.42,0,.59,0a3.92,3.92,0,0,1,.44.06C169.91,37.57,170,37.65,170,37.74Z" style="fill:#e0e0e0"></path><path d="M161.85,42a17.64,17.64,0,0,0-1.44,3,23.76,23.76,0,0,0-.82,3.49c-.24,1.34-.43,2.83-.82,4.38a12,12,0,0,1-1.89,4.09,19.8,19.8,0,0,1-2.41,2.76c-.74.72-1.38,1.26-1.82,1.63a3.69,3.69,0,0,1-.73.54,28.42,28.42,0,0,1,2.29-2.43,15.16,15.16,0,0,0,4-6.72c.38-1.5.59-3,.86-4.33a19.81,19.81,0,0,1,.95-3.53,9.75,9.75,0,0,1,1.17-2.18A3,3,0,0,1,161.85,42Z" style="fill:#ebebeb"></path><path d="M169.22,38.31c0,.07-.77.52-1.93,1.44a14.48,14.48,0,0,0-3.66,4.35,19.24,19.24,0,0,0-1.55,5.5,6,6,0,0,1-.76,2.31c-.08,0,.22-.9.4-2.37a16.32,16.32,0,0,1,1.45-5.69,13,13,0,0,1,3.9-4.39A6.55,6.55,0,0,1,169.22,38.31Z" style="fill:#ebebeb"></path><path d="M172.19,40.17a2.93,2.93,0,0,1,.52,1.07,10.56,10.56,0,0,1,.53,3.19,17,17,0,0,1-1.69,7.4A23.76,23.76,0,0,1,170,54.44a25.08,25.08,0,0,1-7.65,7.31,12.58,12.58,0,0,1-3,1.28,3.76,3.76,0,0,1-1.16.21,18.71,18.71,0,0,0,3.93-1.81,26.56,26.56,0,0,0,7.41-7.29,17.4,17.4,0,0,0,3.33-9.71,12.54,12.54,0,0,0-.36-3.13C172.33,40.57,172.15,40.19,172.19,40.17Z" style="fill:#fafafa"></path><g style="opacity:0.2"><path d="M161.43,40.08a.74.74,0,0,0-.46.08,17,17,0,0,0-8.6,8.55c-1.4,3.15-2.3,6.94-1.44,10.1a1.24,1.24,0,0,0,2.18.55c1.63-1.55,3.84-4,4.55-6.26.79-2.51.51-5.27,1.26-7.8a10,10,0,0,1,2.35-4,1.48,1.48,0,0,0,.4-.57A.48.48,0,0,0,161.43,40.08Z" style="fill:#fff"></path></g><path d="M203.68,265.1c1.18,7.18-5,14.6-13.47,16s-16.06-3.69-17.23-10.88,5-11.23,13.48-12.63c7.1-1.16,13.19-.61,15.76,4A11.63,11.63,0,0,1,203.68,265.1Z" style="fill:#e0e0e0"></path><ellipse cx="188.06" cy="265.97" rx="15.11" ry="9.19" transform="translate(-40.49 33.87) rotate(-9.3)" style="fill:#ebebeb"></ellipse><path d="M202.91,263c-.25.31-1.74-.72-4.48-.81a13.1,13.1,0,0,0-4.65.63,9.86,9.86,0,0,0-2.42,1.19c-.81.53-1.64,1.18-2.56,1.86-.45.34-.92.68-1.41,1s-1,.6-1.49.86a19.18,19.18,0,0,1-3,1.23,16,16,0,0,1-2.87.63c-.45.07-.9.08-1.33.11s-.84,0-1.23,0a9.38,9.38,0,0,1-3.59-.89,3.18,3.18,0,0,1-.84-.56q-.27-.24-.21-.36c.17-.37,1.88.25,4.62,0a19.47,19.47,0,0,0,9.8-4.05,33.07,33.07,0,0,1,2.76-1.94,11.26,11.26,0,0,1,3.1-1.33,12.43,12.43,0,0,1,5.56-.15,8.12,8.12,0,0,1,3.42,1.49c.17.14.32.28.44.39s.2.25.27.35S203,262.93,202.91,263Z" style="fill:#e0e0e0"></path><path d="M194.08,260.37a17.69,17.69,0,0,0-3.1,1.14,23.29,23.29,0,0,0-3,1.94c-1.1.8-2.27,1.74-3.63,2.59a11.94,11.94,0,0,1-4.19,1.63,20.35,20.35,0,0,1-3.65.33c-1,0-1.87-.05-2.45-.09a3.17,3.17,0,0,1-.89-.12,33,33,0,0,1,3.33-.16,15.33,15.33,0,0,0,7.58-2c1.32-.83,2.5-1.75,3.62-2.54a20,20,0,0,1,3.13-1.88,10.15,10.15,0,0,1,2.35-.76A2.74,2.74,0,0,1,194.08,260.37Z" style="fill:#ebebeb"></path><path d="M201.92,262.84c0,.08-.92-.16-2.38-.29a14.28,14.28,0,0,0-5.66.59A18.91,18.91,0,0,0,189,266a5.61,5.61,0,0,1-2.15,1.13c0-.07.78-.49,1.93-1.42a16.19,16.19,0,0,1,5-3.1,13,13,0,0,1,5.86-.46A6.87,6.87,0,0,1,201.92,262.84Z" style="fill:#ebebeb"></path><path d="M202.77,266.25a3.24,3.24,0,0,1-.36,1.13,10.66,10.66,0,0,1-1.83,2.66A15.76,15.76,0,0,1,196.8,273a16.48,16.48,0,0,1-2.57,1.21,22.21,22.21,0,0,1-2.94.79,24.82,24.82,0,0,1-10.58,0,12.42,12.42,0,0,1-3-1.12,4,4,0,0,1-1-.66,19.06,19.06,0,0,0,4.09,1.43,26.81,26.81,0,0,0,10.4-.12,17.34,17.34,0,0,0,9.12-4.69,12.39,12.39,0,0,0,1.92-2.51C202.59,266.63,202.73,266.23,202.77,266.25Z" style="fill:#fafafa"></path><g style="opacity:0.2"><path d="M195.08,258.72a.67.67,0,0,0-.39-.26,16.94,16.94,0,0,0-12.12.2c-3.2,1.3-6.47,3.4-8,6.28a1.24,1.24,0,0,0,1.19,1.9c2.25,0,5.53-.21,7.62-1.35,2.31-1.26,4-3.45,6.31-4.75a10,10,0,0,1,4.5-1.29,1.57,1.57,0,0,0,.69-.13A.48.48,0,0,0,195.08,258.72Z" style="fill:#fff"></path></g><path d="M130.07,182.36c2.23,6.94-2.75,15.18-11,17.82s-16.42-1.29-18.64-8.23,3.26-11.84,11.48-14.47c6.85-2.19,13-2.55,16.18,1.65A12.19,12.19,0,0,1,130.07,182.36Z" style="fill:#f5f5f5"></path><ellipse cx="114.95" cy="186.15" rx="15.11" ry="9.19" transform="translate(-51.31 43.94) rotate(-17.76)" style="fill:#fafafa"></ellipse><path d="M129,180.4c-.2.35-1.83-.45-4.55-.13a13.2,13.2,0,0,0-4.5,1.3,10.14,10.14,0,0,0-2.22,1.53c-.73.65-1.46,1.41-2.26,2.22-.4.41-.81.81-1.25,1.19a14.85,14.85,0,0,1-1.35,1.08,18.87,18.87,0,0,1-2.78,1.66,15.83,15.83,0,0,1-2.75,1c-.44.14-.88.21-1.29.31s-.83.14-1.23.16a9.43,9.43,0,0,1-3.68-.35,3.37,3.37,0,0,1-.91-.43c-.2-.13-.29-.24-.26-.33.11-.39,1.89,0,4.56-.71a19.52,19.52,0,0,0,9.09-5.46c.78-.78,1.57-1.59,2.45-2.32a11.36,11.36,0,0,1,2.87-1.77,12.56,12.56,0,0,1,5.48-1,8,8,0,0,1,3.6,1c.19.12.36.23.49.33a1.89,1.89,0,0,1,.32.3C129,180.2,129.05,180.33,129,180.4Z" style="fill:#f5f5f5"></path><path d="M119.88,179.1a17.69,17.69,0,0,0-2.89,1.59,23.87,23.87,0,0,0-2.7,2.36c-1,1-2,2.06-3.21,3.1a12.11,12.11,0,0,1-3.91,2.23,19.55,19.55,0,0,1-3.55.85c-1,.16-1.86.24-2.44.28a2.86,2.86,0,0,1-.9,0,32.59,32.59,0,0,1,3.27-.65,15.2,15.2,0,0,0,7.2-3.12c1.18-1,2.21-2.1,3.21-3a20.68,20.68,0,0,1,2.82-2.33,10,10,0,0,1,2.21-1.09A3.09,3.09,0,0,1,119.88,179.1Z" style="fill:#f5f5f5"></path><path d="M128,180.4c0,.08-.93,0-2.4,0a14.46,14.46,0,0,0-5.51,1.42,19.18,19.18,0,0,0-4.45,3.59,5.86,5.86,0,0,1-2,1.44c0-.07.7-.6,1.7-1.7a16.29,16.29,0,0,1,4.48-3.8,12.94,12.94,0,0,1,5.73-1.31A6.42,6.42,0,0,1,128,180.4Z" style="fill:#f5f5f5"></path><path d="M129.34,183.64a3.06,3.06,0,0,1-.19,1.17,10.69,10.69,0,0,1-1.41,2.9,15.88,15.88,0,0,1-3.31,3.48,16.4,16.4,0,0,1-2.36,1.57,24.23,24.23,0,0,1-2.79,1.22,25.13,25.13,0,0,1-10.48,1.52,12.26,12.26,0,0,1-3.16-.67,3.73,3.73,0,0,1-1.06-.5,19.23,19.23,0,0,0,4.25.8,26.6,26.6,0,0,0,10.27-1.64,17.28,17.28,0,0,0,8.33-6,12.09,12.09,0,0,0,1.53-2.76C129.22,184,129.3,183.63,129.34,183.64Z" style="fill:#fafafa"></path><g style="opacity:0.2"><path d="M120.62,177.32a.67.67,0,0,0-.41-.2,17,17,0,0,0-12,2c-3,1.76-5.9,4.33-7,7.4a1.24,1.24,0,0,0,1.45,1.71c2.23-.31,5.45-1,7.34-2.46,2.1-1.59,3.46-4,5.54-5.63a10.07,10.07,0,0,1,4.27-1.94,1.38,1.38,0,0,0,.66-.23A.47.47,0,0,0,120.62,177.32Z" style="fill:#fff"></path></g><path d="M96.51,64.94c-1.74,9.55-12.76,16.11-24.07,14S53.94,67.18,55.68,57.63,67,45.76,78.26,47.82c9.42,1.71,16.82,5.12,18,12.09A16,16,0,0,1,96.51,64.94Z" style="fill:#f5f5f5"></path><path d="M96.17,63.51c-1.21,6.65-11.06,10.43-22,8.43s-18.83-9-17.62-15.65,11.06-10.43,22-8.43S97.38,56.86,96.17,63.51Z" style="fill:#fafafa"></path><path d="M96.48,62c-.45.28-1.86-1.69-5.26-3a17.63,17.63,0,0,0-6.12-1.29,13.58,13.58,0,0,0-3.56.41c-1.26.3-2.6.75-4.05,1.19-.72.22-1.46.44-2.22.62s-1.53.31-2.26.42a24.45,24.45,0,0,1-4.31.2,20.35,20.35,0,0,1-3.88-.5c-.6-.11-1.17-.3-1.72-.45S62,59.19,61.56,59a12.19,12.19,0,0,1-4.1-2.72,4.32,4.32,0,0,1-.81-1.07c-.15-.28-.18-.47-.1-.56.37-.39,2.25,1.15,5.81,2a26,26,0,0,0,14.12-.71c1.4-.43,2.83-.89,4.32-1.2a14.89,14.89,0,0,1,4.49-.27,16.43,16.43,0,0,1,7,2.29A10.76,10.76,0,0,1,96,60.15c.15.26.28.49.38.69a3.55,3.55,0,0,1,.18.56C96.6,61.71,96.58,61.9,96.48,62Z" style="fill:#f5f5f5"></path><path d="M86.57,54.71a19.47,19.47,0,0,0-4.4,0,31.35,31.35,0,0,0-4.67,1.08c-1.73.51-3.63,1.16-5.7,1.61a15.74,15.74,0,0,1-6,.18,26.15,26.15,0,0,1-4.71-1.2c-1.3-.45-2.33-.88-3-1.18A5.36,5.36,0,0,1,57,54.66a6,6,0,0,1,1.15.33c.73.25,1.78.62,3.09,1,2.58.77,6.37,1.81,10.45.87,2-.45,3.93-1.08,5.68-1.57a27.29,27.29,0,0,1,4.76-1,13.4,13.4,0,0,1,3.28.07A4.47,4.47,0,0,1,86.57,54.71Z" style="fill:#f5f5f5"></path><path d="M95.31,61.32c0,.07-1.06-.65-2.84-1.49A18.67,18.67,0,0,0,85.09,58c-3-.09-5.59,1-7.51,1.45a15.17,15.17,0,0,1-2.31.5,2.53,2.53,0,0,1-.87,0c0-.08,1.2-.23,3.08-.87S82,57.4,85.1,57.49a17.3,17.3,0,0,1,7.54,2,17,17,0,0,1,2,1.25C95.1,61.08,95.33,61.29,95.31,61.32Z" style="fill:#f5f5f5"></path><path d="M94.85,66s-.06.13-.21.35a7.65,7.65,0,0,1-.77.88,14.4,14.4,0,0,1-3.49,2.5,21.37,21.37,0,0,1-6,2,22.4,22.4,0,0,1-3.75.36,31.36,31.36,0,0,1-4-.32A33.73,33.73,0,0,1,63.3,67,17.17,17.17,0,0,1,60,64.25a8.5,8.5,0,0,1-.74-.91C59.1,63.13,59,63,59,63a22.34,22.34,0,0,0,4.46,3.67,35.15,35.15,0,0,0,13.12,4.54,23,23,0,0,0,13.59-1.84,15.67,15.67,0,0,0,3.52-2.31C94.47,66.39,94.82,66,94.85,66Z" style="fill:#fafafa"></path><g style="opacity:0.2"><path d="M88.56,53.08a.89.89,0,0,0-.36-.5,22.61,22.61,0,0,0-15.31-5.17c-4.59.2-9.64,1.38-12.89,4.28a1.65,1.65,0,0,0,.63,2.93c2.82,1,7.05,2.21,10.17,1.71,3.47-.55,6.58-2.53,10-3.14a13.42,13.42,0,0,1,6.23.4,2.09,2.09,0,0,0,.92.14C88.32,53.67,88.62,53.39,88.56,53.08Z" style="fill:#fff"></path></g><path d="M459.46,47.76c6.81,6.92,5.85,19.71-2.34,27.78S436.81,83.87,430,77s-3.23-16,5-24.11c6.82-6.72,13.86-10.81,20.23-7.76A16,16,0,0,1,459.46,47.76Z" style="fill:#f5f5f5"></path><ellipse cx="443.75" cy="61.35" rx="20.14" ry="12.24" transform="translate(84.57 329.06) rotate(-44.57)" style="fill:#fafafa"></ellipse><path d="M457,46.08c0,.53-2.44.55-5.49,2.57a17.49,17.49,0,0,0-4.57,4.26,13.53,13.53,0,0,0-1.72,3.15c-.48,1.2-.88,2.55-1.35,4-.23.72-.48,1.45-.77,2.17a22.36,22.36,0,0,1-1,2.1A25.14,25.14,0,0,1,439.83,68a22.52,22.52,0,0,1-2.64,2.89c-.44.42-.92.78-1.36,1.14s-.9.67-1.36.93a12.35,12.35,0,0,1-4.58,1.79,4.6,4.6,0,0,1-1.35.05c-.31-.05-.48-.12-.5-.24-.11-.53,2.23-1.18,5-3.59a26,26,0,0,0,7.54-12,44.47,44.47,0,0,1,1.51-4.22,14.8,14.8,0,0,1,2.35-3.83,16.6,16.6,0,0,1,5.93-4.45,10.83,10.83,0,0,1,4.87-1,7,7,0,0,1,.78.09,3.46,3.46,0,0,1,.56.17C456.87,45.84,457,46,457,46.08Z" style="fill:#f5f5f5"></path><path d="M445.38,50a19.67,19.67,0,0,0-2.55,3.59A32,32,0,0,0,441,58c-.58,1.71-1.14,3.64-2,5.6a15.94,15.94,0,0,1-3.29,5,26.38,26.38,0,0,1-3.69,3.16c-1.12.81-2.06,1.41-2.71,1.82a5.53,5.53,0,0,1-1.05.58,5.41,5.41,0,0,1,.93-.75c.62-.46,1.53-1.1,2.61-1.94,2.12-1.67,5.15-4.18,6.72-8.06.8-1.91,1.38-3.83,2-5.55a27,27,0,0,1,1.93-4.45,13.43,13.43,0,0,1,1.95-2.65A4.94,4.94,0,0,1,445.38,50Z" style="fill:#f5f5f5"></path><path d="M455.81,46.67c0,.08-1.14.49-2.85,1.46a18.91,18.91,0,0,0-5.74,5c-1.79,2.4-2.43,5.13-3.12,7a16.39,16.39,0,0,1-.93,2.18,2.56,2.56,0,0,1-.48.72c-.07,0,.51-1.11,1.06-3s1.18-4.65,3.06-7.17a17.53,17.53,0,0,1,6-5,15.56,15.56,0,0,1,2.19-.92A2.5,2.5,0,0,1,455.81,46.67Z" style="fill:#f5f5f5"></path><path d="M459.36,49.72a1.37,1.37,0,0,1,.16.37,11.15,11.15,0,0,1,.28,1.14,14.55,14.55,0,0,1,0,4.29A21.16,21.16,0,0,1,458,61.61a22.21,22.21,0,0,1-1.86,3.28A30.93,30.93,0,0,1,453.53,68,33.49,33.49,0,0,1,442,76.11a17.62,17.62,0,0,1-4.13,1.13,8.29,8.29,0,0,1-1.17.08c-.26,0-.4,0-.4,0a22.61,22.61,0,0,0,5.56-1.54,35.35,35.35,0,0,0,11.27-8.12,23.16,23.16,0,0,0,6.31-12.18,15.92,15.92,0,0,0,.13-4.21C459.48,50.26,459.31,49.73,459.36,49.72Z" style="fill:#fafafa"></path><g style="opacity:0.2"><path d="M445.19,47.45a.83.83,0,0,0-.62,0,22.6,22.6,0,0,0-13,9.54c-2.48,3.88-4.42,8.69-3.91,13a1.64,1.64,0,0,0,2.75,1.16c2.46-1.71,5.86-4.49,7.25-7.33,1.55-3.16,1.72-6.85,3.21-10A13.52,13.52,0,0,1,444.75,49a2,2,0,0,0,.65-.67A.63.63,0,0,0,445.19,47.45Z" style="fill:#fff"></path></g><path d="M316.16,251.53c6.92,7.75,5.22,21.37-4,29.56s-22.14,7.85-29.06.1-2.62-17.32,6.56-25.51c7.65-6.83,15.39-10.83,22-7.23A17.22,17.22,0,0,1,316.16,251.53Z" style="fill:#e0e0e0"></path><ellipse cx="298.03" cy="264.53" rx="21.55" ry="13.1" transform="translate(-100.46 265.69) rotate(-41.76)" style="fill:#ebebeb"></ellipse><path d="M313.63,249.59c-.07.57-2.65.47-6,2.46a18.61,18.61,0,0,0-5.11,4.32,14.14,14.14,0,0,0-2,3.28c-.58,1.26-1.08,2.68-1.66,4.2-.29.75-.59,1.52-.93,2.27s-.75,1.5-1.14,2.19a27,27,0,0,1-2.67,3.78,23.42,23.42,0,0,1-3,2.94c-.5.43-1,.79-1.52,1.15a16.4,16.4,0,0,1-1.5.92,13.09,13.09,0,0,1-5,1.68,4.8,4.8,0,0,1-1.45,0c-.33-.06-.51-.16-.52-.28-.09-.58,2.44-1.14,5.52-3.58a27.79,27.79,0,0,0,8.69-12.38c.56-1.47,1.12-3,1.84-4.44a15.92,15.92,0,0,1,2.71-4,17.86,17.86,0,0,1,6.57-4.44,11.55,11.55,0,0,1,5.26-.83c.32,0,.6.09.83.14a4.29,4.29,0,0,1,.59.21C313.49,249.33,313.64,249.47,313.63,249.59Z" style="fill:#e0e0e0"></path><path d="M301,253.19a20,20,0,0,0-2.92,3.7,32.08,32.08,0,0,0-2.16,4.65c-.72,1.8-1.41,3.83-2.39,5.88a17.15,17.15,0,0,1-3.78,5.14,28.26,28.26,0,0,1-4.1,3.19c-1.24.81-2.28,1.4-3,1.8a6.24,6.24,0,0,1-1.15.58,5.67,5.67,0,0,1,1-.75c.69-.45,1.69-1.09,2.89-1.93a31.78,31.78,0,0,0,4-3.23,17.14,17.14,0,0,0,3.64-5c1-2,1.67-4,2.41-5.83a29.76,29.76,0,0,1,2.3-4.66A14.45,14.45,0,0,1,300,254,5.13,5.13,0,0,1,301,253.19Z" style="fill:#ebebeb"></path><path d="M312.32,250.16c0,.09-1.25.46-3.13,1.4a20.07,20.07,0,0,0-6.4,5c-2.05,2.47-2.87,5.36-3.71,7.3a17.69,17.69,0,0,1-1.1,2.28,2.73,2.73,0,0,1-.55.76c-.07-.05.61-1.17,1.31-3.17s1.51-4.92,3.64-7.5a18.72,18.72,0,0,1,6.65-5,17,17,0,0,1,2.38-.88A3.14,3.14,0,0,1,312.32,250.16Z" style="fill:#ebebeb"></path><path d="M316,253.61s.07.13.15.41a10.26,10.26,0,0,1,.23,1.23,15.52,15.52,0,0,1-.19,4.58,24.48,24.48,0,0,1-4.47,9.82,33.29,33.29,0,0,1-2.92,3.19A36.17,36.17,0,0,1,296,280.9a18.41,18.41,0,0,1-4.48,1,8.13,8.13,0,0,1-1.24,0,2.5,2.5,0,0,1-.44,0,13.47,13.47,0,0,1,1.66-.21,20.56,20.56,0,0,0,4.38-1.14,37.58,37.58,0,0,0,12.47-8.09,24.69,24.69,0,0,0,7.39-12.7,16.83,16.83,0,0,0,.35-4.49C316.05,254.2,315.9,253.62,316,253.61Z" style="fill:#fafafa"></path><g style="opacity:0.2"><path d="M300.93,250.44a1,1,0,0,0-.67,0,24.18,24.18,0,0,0-14.43,9.52c-2.85,4-5.18,9.05-4.86,13.71a1.76,1.76,0,0,0,2.88,1.38c2.72-1.7,6.5-4.49,8.14-7.46,1.81-3.29,2.19-7.22,3.95-10.54a14.3,14.3,0,0,1,4.43-5,2.23,2.23,0,0,0,.74-.69A.7.7,0,0,0,300.93,250.44Z" style="fill:#fff"></path></g></g><g id="freepik--Floor--inject-146"><path d="M489.72,399c0,.14-107.78.26-240.71.26S8.28,399.09,8.28,399,116,398.69,249,398.69,489.72,398.8,489.72,399Z" style="fill:#263238"></path></g><g id="freepik--plant-2--inject-146"><path d="M413.42,106.94a114.74,114.74,0,0,1,13.95,14c4.11,5.17,7.42,11.1,8.73,17.57,2.23,11-1.39,22.16-5,32.76a44.29,44.29,0,0,1-23.73-28.87c-3.12-12.49-1.67-25.16,6-35.48" style="fill:#455a64"></path><path d="M399.26,230.2c-7.51-4.78-14.83-10-20.8-16.62s-10.56-14.7-11.79-23.52c-1.5-10.69,1.79-22.41-3.37-31.89,10.16,5.38,20.68,11.06,27.47,20.34,5.18,7.09,7.76,15.81,8.75,24.53s.44,17.54-.09,26.31" style="fill:#455a64"></path><g style="opacity:0.30000000000000004"><path d="M399.26,230.2c-7.51-4.78-14.83-10-20.8-16.62s-10.56-14.7-11.79-23.52c-1.5-10.69,1.79-22.41-3.37-31.89,10.16,5.38,20.68,11.06,27.47,20.34,5.18,7.09,7.76,15.81,8.75,24.53s.44,17.54-.09,26.31"></path></g><path d="M323.41,387c.45-1.1,19.52-25.9,22.13-31.26S373,294.53,373,294.53s-1.58,7.06,1.95-4.78S387.88,256.89,395,247.8s13.84-37.21,17.52-49.42,16.26-30.65,16.26-30.65l3.36,1.37s-12.32,15.55-15.42,28.42-10.9,38.4-16,48.76-7.75,14.84-12.44,23.21-19.19,46.16-19.64,47.27-9.6,29.93-16,41.46S331.52,392,331.52,392Z" style="fill:#455a64"></path><path d="M402,266.13c-2.61-4.91-6.78-8.62-11.38-11.76-2.43-8.32-11.76-14.41-20.42-14.23s-16.77,5-22.65,11.4-9.87,14.25-13.6,22.1q-9.9,20.88-18,42.58c6.75-.54,13-3.7,19.48-5.57,8.45-2.43,17.34-2.69,26.11-3.24s17.72-1.43,25.75-5,15.14-10.26,17.09-18.83A26,26,0,0,0,402,266.13Z" style="fill:#455a64"></path><path d="M411.57,244.32c3.32,8.52,4.18,17.77,5.74,26.79s4,18.24,9.85,25.28c3.42,4.12,7.83,7.29,11.73,11,4.73,4.46,8.69,9.64,12.63,14.81a80,80,0,0,1,7.34,10.78c3.72,7,5.3,14.84,6.84,22.58q4.83-18.21,9.65-36.43c2.18-8.21,4.37-16.59,3.85-25.07-.45-7.26-2.89-14.27-5.95-20.87-2.78-5.95-6.15-11.75-10.95-16.24-6-5.6-13.85-8.84-21.87-10.5s-16.27-1.84-24.46-2" style="fill:#455a64"></path><path d="M451.05,205c-7.24.75-14.1,3.75-20.21,7.71s-11.3,8.66-16.53,13.5a48,48,0,0,0,72.14-12.28C475.21,208.85,463.3,203.69,451.05,205Z" style="fill:#455a64"></path><path d="M402.15,217.78c-9.8-4-17.39-13.57-17.9-24.13-.58-12.17,7.49-22.88,11-34.55A100.74,100.74,0,0,1,407,187.37a48,48,0,0,1,1.63,15.71,23.63,23.63,0,0,1-6.08,14.34" style="fill:#455a64"></path><path d="M381.9,212c-5.57-9.44-13.73-17.62-23.88-21.73-13.71-5.56-29.19-3.21-43.78-.78,1.74,7.41,3.5,14.87,6.59,21.82s7.6,13.46,13.9,17.73c8,5.42,18,6.75,27.65,7.56S382,237.92,390.69,242l2.41.69C390.89,232,387.46,221.45,381.9,212Z" style="fill:#455a64"></path><path d="M318.62,314.54s0-.08.13-.21.27-.33.44-.56l1.74-2.14c.75-.93,1.69-2.05,2.82-3.32s2.38-2.75,3.85-4.3,3-3.29,4.82-5.07,3.68-3.67,5.71-5.65c4.11-3.89,8.74-8,13.78-12.19s10-7.89,14.6-11.2,8.84-6.11,12.46-8.39c1.79-1.17,3.45-2.16,4.9-3.05s2.71-1.63,3.75-2.22l2.39-1.36.63-.34a1.71,1.71,0,0,1,.22-.11.81.81,0,0,1-.2.15l-.6.39-2.34,1.45c-1,.61-2.27,1.38-3.7,2.29s-3.08,1.92-4.85,3.11c-3.59,2.31-7.79,5.19-12.38,8.47s-9.51,7.08-14.55,11.21-9.66,8.28-13.78,12.14c-2,2-4,3.8-5.74,5.6s-3.39,3.46-4.85,5-2.76,3-3.9,4.24-2.11,2.35-2.88,3.26l-1.81,2.07-.49.54Z" style="fill:#263238"></path><path d="M466.22,353.7a1.71,1.71,0,0,1,.06-.37c.05-.27.13-.63.22-1.08.21-.95.51-2.34.82-4.15a99.81,99.81,0,0,0,1.5-15.47,107.23,107.23,0,0,0-.42-10.72,99,99,0,0,0-2-12.15,93.18,93.18,0,0,0-10.26-26.16,96,96,0,0,0-17.47-22A81.29,81.29,0,0,0,420,248.18,45.71,45.71,0,0,0,411.8,245a35,35,0,0,0-6.57-1.1A32.18,32.18,0,0,0,401,244l-1.09.11-.38,0a1.34,1.34,0,0,1,.37-.07l1.09-.16a27.8,27.8,0,0,1,4.24-.15,34.33,34.33,0,0,1,6.64,1,45.37,45.37,0,0,1,8.33,3.11A80.47,80.47,0,0,1,439,261.22a95.54,95.54,0,0,1,17.6,22.12,92.54,92.54,0,0,1,10.28,26.32,99.5,99.5,0,0,1,1.93,12.21,107.28,107.28,0,0,1,.36,10.77,95.28,95.28,0,0,1-1.67,15.5c-.34,1.81-.68,3.19-.92,4.13-.11.45-.2.81-.27,1.07A2.81,2.81,0,0,1,466.22,353.7Z" style="fill:#263238"></path><path d="M481.56,215.6a4.1,4.1,0,0,1-.82.05l-2.35,0-8.64.09a204.05,204.05,0,0,0-28.37,2,93.86,93.86,0,0,0-27.09,8.29,69.22,69.22,0,0,0-7.47,4.28c-.87.54-1.5,1-1.95,1.31a3.79,3.79,0,0,1-.69.43,4.19,4.19,0,0,1,.63-.52c.43-.32,1-.82,1.89-1.39a64.29,64.29,0,0,1,7.43-4.44,90.43,90.43,0,0,1,27.17-8.47,188.24,188.24,0,0,1,28.45-1.9c3.65,0,6.6,0,8.64.08l2.35.06A5.36,5.36,0,0,1,481.56,215.6Z" style="fill:#263238"></path><path d="M404.2,232.72A3.3,3.3,0,0,1,404,232l-.4-2.09c-.32-1.82-.76-4.46-1.27-7.72-1-6.53-2.26-15.57-3.49-25.58s-2.18-19.08-2.76-25.66c-.3-3.29-.5-6-.62-7.8-.06-.88-.1-1.59-.13-2.13a3.5,3.5,0,0,1,0-.74,6.26,6.26,0,0,1,.11.74c0,.53.13,1.23.22,2.11.19,1.9.46,4.54.79,7.78.67,6.57,1.69,15.64,2.91,25.64s2.42,19,3.34,25.58c.46,3.23.83,5.86,1.1,7.74.13.88.22,1.58.3,2.11A5.73,5.73,0,0,1,404.2,232.72Z" style="fill:#263238"></path><path d="M323,194.15a.7.7,0,0,1,.23.06l.65.24,2.48,1c2.15.85,5.26,2.1,9.07,3.72A156.29,156.29,0,0,1,364,214.41a127.8,127.8,0,0,1,24,21.67c2.71,3.13,4.7,5.83,6.08,7.69l1.52,2.2.38.57a1.58,1.58,0,0,1,.12.21.78.78,0,0,1-.16-.18c-.12-.14-.26-.32-.43-.54l-1.6-2.14c-1.42-1.81-3.45-4.48-6.19-7.57a137,137,0,0,0-10.14-10.38,133,133,0,0,0-13.85-11.1,163.73,163.73,0,0,0-28.34-15.36l-9-3.87-2.44-1.06-.63-.29C323.1,194.19,323,194.16,323,194.15Z" style="fill:#263238"></path><path d="M379,242a7.43,7.43,0,0,1,1.22.5,19,19,0,0,1,3.15,1.87,21.89,21.89,0,0,1,7.49,10l-.12-.14a30.38,30.38,0,0,1,4.81,3.42,29.68,29.68,0,0,1,5.85,7,27.94,27.94,0,0,1,2.94,6.85,23.93,23.93,0,0,1,.81,4.95c0,.54,0,1,0,1.37a1.9,1.9,0,0,1,0,.47,12.45,12.45,0,0,1-.17-1.82,26,26,0,0,0-1-4.87,28.31,28.31,0,0,0-3-6.7,30.39,30.39,0,0,0-5.78-6.87,31.16,31.16,0,0,0-4.72-3.37l-.08,0,0-.1a21.34,21.34,0,0,0-3.33-6,22.73,22.73,0,0,0-3.87-3.87A40.76,40.76,0,0,0,379,242Z" style="fill:#263238"></path><path d="M424.69,214.66a10.07,10.07,0,0,0-8.33-1.39,17.07,17.07,0,0,0-7.46,4.35,16.57,16.57,0,0,0-5.14,8.35,9.57,9.57,0,0,0,2.62,9.12l1.5,1a14.66,14.66,0,0,0,20.43-11C428.93,221.25,427.8,217,424.69,214.66Z" style="fill:#9180C2"></path><g style="opacity:0.30000000000000004"><path d="M416.74,217.67a5.65,5.65,0,0,0-3.54,1.15,8.65,8.65,0,0,0-3.53,4.83,4.49,4.49,0,0,0,.05,3.19,3.54,3.54,0,0,0,2.51,1.79,5.89,5.89,0,0,0,3.13-.37,9.08,9.08,0,0,0,4.35-3.5,5.26,5.26,0,0,0,.83-4.42A4.25,4.25,0,0,0,416.74,217.67Z" style="fill:#fff"></path></g><path d="M417.59,219.79a1.18,1.18,0,0,0-1.44.36,1.86,1.86,0,0,0,.5,2.27,1.35,1.35,0,0,0,1.68,0,1.45,1.45,0,0,0,.25-1.37A1.84,1.84,0,0,0,417.59,219.79Z" style="fill:#fff"></path><path d="M416.12,220.18l0,0h0Z" style="fill:#fff"></path><g style="opacity:0.30000000000000004"><path d="M428.25,220.65h0a41.73,41.73,0,0,1-1.75,5.49A14.14,14.14,0,0,1,416,234.19a16.69,16.69,0,0,1-6.26.13,11.64,11.64,0,0,1-5.6-2.64,8.25,8.25,0,0,0,2.25,3.41l1.5,1a14.66,14.66,0,0,0,20.43-11A12.81,12.81,0,0,0,428.25,220.65Z"></path></g><g style="opacity:0.30000000000000004"><path d="M420.6,217a4.61,4.61,0,0,0,2.21,2.49.51.51,0,0,0,.53.05c.17-.12.14-.39.07-.59a4.62,4.62,0,0,0-1.44-1.7,1.86,1.86,0,0,0-.6-.4.65.65,0,0,0-.67.11"></path></g><path d="M423.81,219.75c0,.07-.31.16-.82.09a3.14,3.14,0,0,1-2.63-2.72c-.05-.51.05-.82.12-.82a6.19,6.19,0,0,0,1.11,2.26A6.11,6.11,0,0,0,423.81,219.75Z" style="fill:#263238"></path><path d="M391.3,218.73a9,9,0,0,1,7.13,2.24,15.2,15.2,0,0,1,4.14,6.42,14.67,14.67,0,0,1,.71,8.65,8.5,8.5,0,0,1-5.72,6.15l-1.59.19a13,13,0,0,1-11.69-16.89C385.31,222.23,387.93,219.29,391.3,218.73Z" style="fill:#9180C2"></path><g style="opacity:0.30000000000000004"><path d="M396.36,224.29a4.93,4.93,0,0,1,2.33,2.33,7.62,7.62,0,0,1,.86,5.22,4,4,0,0,1-1.32,2.5,3.1,3.1,0,0,1-2.7.4,5.19,5.19,0,0,1-2.32-1.54,8,8,0,0,1-2-4.51,4.61,4.61,0,0,1,1.12-3.81A3.74,3.74,0,0,1,396.36,224.29Z" style="fill:#fff"></path></g><path d="M394.85,225.62a1.08,1.08,0,0,1,1,.87,1.67,1.67,0,0,1-1.31,1.59,1.2,1.2,0,0,1-1.32-.68,1.28,1.28,0,0,1,.35-1.18A1.65,1.65,0,0,1,394.85,225.62Z" style="fill:#fff"></path><path d="M395.85,226.52a0,0,0,0,1,0,0v0Z" style="fill:#fff"></path><g style="opacity:0.30000000000000004"><path d="M386.09,222h0a37.39,37.39,0,0,0-.82,5,12.51,12.51,0,0,0,5.07,10.57,14.76,14.76,0,0,0,4.88,2.61,10.3,10.3,0,0,0,5.48.15,7.28,7.28,0,0,1-3.14,1.8l-1.59.19a13,13,0,0,1-11.69-16.89A11.12,11.12,0,0,1,386.09,222Z"></path></g><g style="opacity:0.30000000000000004"><path d="M393.58,222.23a4.07,4.07,0,0,1-2.75,1.08c-.16,0-.35,0-.43-.17s0-.36.18-.49a4.17,4.17,0,0,1,1.82-.77,1.7,1.7,0,0,1,.63-.07.59.59,0,0,1,.49.35"></path></g><path d="M390,223.1a6.2,6.2,0,0,0,2.22-.08c1.16-.39,1.67-1.38,1.8-1.3s0,.31-.22.7a2.78,2.78,0,0,1-3.19,1.1C390.13,223.37,389.92,223.16,390,223.1Z" style="fill:#263238"></path><path d="M419.7,240.63a7.63,7.63,0,0,0-5.41-3.39,13,13,0,0,0-6.47.87,12.62,12.62,0,0,0-6,4.34,7.26,7.26,0,0,0-.82,7.14l.75,1.14A11.1,11.1,0,0,0,419.21,249C420.75,246.47,421.21,243.14,419.7,240.63Z" style="fill:#9180C2"></path><g style="opacity:0.30000000000000004"><path d="M413.28,240.43a4.3,4.3,0,0,0-2.81-.23,6.57,6.57,0,0,0-3.87,2.35,3.41,3.41,0,0,0-.89,2.24,2.64,2.64,0,0,0,1.23,2,4.51,4.51,0,0,0,2.3.65,6.79,6.79,0,0,0,4.05-1.18,3.93,3.93,0,0,0,1.86-2.84A3.21,3.21,0,0,0,413.28,240.43Z" style="fill:#fff"></path></g><path d="M413.26,242.15a.92.92,0,0,0-1.12-.16,1.42,1.42,0,0,0-.31,1.73,1,1,0,0,0,1.18.48,1.08,1.08,0,0,0,.57-.88A1.4,1.4,0,0,0,413.26,242.15Z" style="fill:#fff"></path><path d="M412.12,242h0Z" style="fill:#fff"></path><g style="opacity:0.30000000000000004"><path d="M420.45,245.85h0a30.83,30.83,0,0,1-2.82,3.33,10.46,10.46,0,0,1-3.74,2.24,10.71,10.71,0,0,1-5.94.33,12.5,12.5,0,0,1-4.4-1.73,8.77,8.77,0,0,1-3.15-3.47,6.26,6.26,0,0,0,.58,3l.75,1.14A11.1,11.1,0,0,0,419.21,249,9.83,9.83,0,0,0,420.45,245.85Z"></path></g><g style="opacity:0.30000000000000004"><path d="M416.16,241.09a3.58,3.58,0,0,0,.82,2.39c.09.11.22.22.35.19s.22-.23.22-.4a3.45,3.45,0,0,0-.5-1.6,1.61,1.61,0,0,0-.3-.45.53.53,0,0,0-.5-.13"></path></g><path d="M417.61,243.93c0,.07-.28.06-.63-.14a2.29,2.29,0,0,1-1-1.17,2.33,2.33,0,0,1-.06-1.53c.13-.38.3-.56.36-.53s-.19.92.19,1.87S417.67,243.8,417.61,243.93Z" style="fill:#263238"></path><path d="M450.74,149.62a10.27,10.27,0,0,0-8.48-1.42,17.32,17.32,0,0,0-7.58,4.43,16.82,16.82,0,0,0-5.24,8.49,9.77,9.77,0,0,0,2.67,9.29l1.52,1a14.92,14.92,0,0,0,20.79-11.24C455.05,156.32,453.9,152,450.74,149.62Z" style="fill:#9180C2"></path><g style="opacity:0.30000000000000004"><path d="M442.65,152.68a5.7,5.7,0,0,0-3.6,1.18,8.76,8.76,0,0,0-3.6,4.9,4.54,4.54,0,0,0,.06,3.25,3.55,3.55,0,0,0,2.55,1.82,5.92,5.92,0,0,0,3.19-.37,9.17,9.17,0,0,0,4.42-3.57,5.31,5.31,0,0,0,.84-4.49A4.31,4.31,0,0,0,442.65,152.68Z" style="fill:#fff"></path></g><path d="M443.51,154.84a1.2,1.2,0,0,0-1.46.37,1.91,1.91,0,0,0,.51,2.31,1.38,1.38,0,0,0,1.71,0,1.43,1.43,0,0,0,.25-1.39A1.88,1.88,0,0,0,443.51,154.84Z" style="fill:#fff"></path><path d="M442,155.23l0,0v0Z" style="fill:#fff"></path><g style="opacity:0.30000000000000004"><path d="M454.36,155.71h0a41.31,41.31,0,0,1-1.78,5.59A14.13,14.13,0,0,1,449.1,166a14.46,14.46,0,0,1-7.21,3.48,17.07,17.07,0,0,1-6.37.13,11.87,11.87,0,0,1-5.7-2.69,8.37,8.37,0,0,0,2.29,3.47l1.52,1a14.92,14.92,0,0,0,20.79-11.24A13,13,0,0,0,454.36,155.71Z"></path></g><g style="opacity:0.30000000000000004"><path d="M446.57,152a4.77,4.77,0,0,0,2.26,2.54c.17.08.38.16.53.05s.15-.4.07-.6a4.69,4.69,0,0,0-1.46-1.74,2,2,0,0,0-.6-.4.69.69,0,0,0-.69.11"></path></g><path d="M449.84,154.8c0,.07-.31.16-.83.09a3.22,3.22,0,0,1-1.8-.94,3.16,3.16,0,0,1-.87-1.83c-.06-.52.05-.83.11-.83a6.33,6.33,0,0,0,1.13,2.3A6.15,6.15,0,0,0,449.84,154.8Z" style="fill:#263238"></path><path d="M415.15,154a10.51,10.51,0,0,1,8.35,2.62,17.71,17.71,0,0,1,4.84,7.52,17.14,17.14,0,0,1,.84,10.12,10,10,0,0,1-6.71,7.2l-1.85.23a15.18,15.18,0,0,1-13.69-19.78C408.14,158.08,411.2,154.64,415.15,154Z" style="fill:#9180C2"></path><g style="opacity:0.30000000000000004"><path d="M421.08,160.49a5.81,5.81,0,0,1,2.73,2.72,9,9,0,0,1,1,6.12,4.67,4.67,0,0,1-1.55,2.92,3.65,3.65,0,0,1-3.15.48,6,6,0,0,1-2.72-1.82,9.21,9.21,0,0,1-2.37-5.27,5.4,5.4,0,0,1,1.3-4.46A4.38,4.38,0,0,1,421.08,160.49Z" style="fill:#fff"></path></g><path d="M419.3,162.05a1.23,1.23,0,0,1,1.16,1,1.94,1.94,0,0,1-1.53,1.86,1.4,1.4,0,0,1-1.55-.79,1.48,1.48,0,0,1,.42-1.38A1.9,1.9,0,0,1,419.3,162.05Z" style="fill:#fff"></path><path d="M420.47,163.1s0,0,0,0v0Z" style="fill:#fff"></path><g style="opacity:0.30000000000000004"><path d="M409.06,157.85h0a41.92,41.92,0,0,0-1,5.88,14.41,14.41,0,0,0,1,5.9A14.58,14.58,0,0,0,414,176.1a17,17,0,0,0,5.71,3.05,11.94,11.94,0,0,0,6.41.19,8.48,8.48,0,0,1-3.68,2.1l-1.85.23a15.18,15.18,0,0,1-13.69-19.78A13,13,0,0,1,409.06,157.85Z"></path></g><g style="opacity:0.30000000000000004"><path d="M417.82,158.08a4.82,4.82,0,0,1-3.21,1.27.56.56,0,0,1-.51-.2c-.11-.2,0-.43.21-.58a4.72,4.72,0,0,1,2.13-.9,2,2,0,0,1,.73-.09.71.71,0,0,1,.58.41"></path></g><path d="M413.57,159.1a6.45,6.45,0,0,0,2.61,0c1.38-.48,2-1.65,2.09-1.57s0,.35-.28.8a3.25,3.25,0,0,1-3.7,1.28C413.79,159.38,413.54,159.15,413.57,159.1Z" style="fill:#263238"></path><path d="M449.71,177.16a9,9,0,0,0-6.34-4,15.16,15.16,0,0,0-7.58,1,14.68,14.68,0,0,0-7,5.08,8.47,8.47,0,0,0-1,8.35l.88,1.34a13,13,0,0,0,20.46-2.08C450.93,184,451.47,180.09,449.71,177.16Z" style="fill:#9180C2"></path><g style="opacity:0.30000000000000004"><path d="M442.19,176.92a5,5,0,0,0-3.29-.26,7.59,7.59,0,0,0-4.53,2.74,3.94,3.94,0,0,0-1,2.63,3.08,3.08,0,0,0,1.44,2.32,5.25,5.25,0,0,0,2.69.76,7.94,7.94,0,0,0,4.74-1.39,4.63,4.63,0,0,0,2.18-3.32A3.76,3.76,0,0,0,442.19,176.92Z" style="fill:#fff"></path></g><path d="M442.16,178.94a1.05,1.05,0,0,0-1.31-.19,1.66,1.66,0,0,0-.36,2,1.19,1.19,0,0,0,1.38.57,1.28,1.28,0,0,0,.67-1A1.66,1.66,0,0,0,442.16,178.94Z" style="fill:#fff"></path><path d="M440.83,178.76h0Z" style="fill:#fff"></path><g style="opacity:0.30000000000000004"><path d="M450.58,183.27h0a36.07,36.07,0,0,1-3.3,3.89,12.3,12.3,0,0,1-4.38,2.63,12.53,12.53,0,0,1-6.95.38,14.56,14.56,0,0,1-5.16-2,10.31,10.31,0,0,1-3.68-4.07,7.27,7.27,0,0,0,.68,3.56l.88,1.34a13,13,0,0,0,20.46-2.08A11.56,11.56,0,0,0,450.58,183.27Z"></path></g><g style="opacity:0.30000000000000004"><path d="M445.56,177.7a4.11,4.11,0,0,0,1,2.79c.11.13.25.26.41.22s.25-.27.26-.46a4,4,0,0,0-.59-1.88,1.91,1.91,0,0,0-.36-.53.57.57,0,0,0-.58-.14"></path></g><path d="M447.25,181c0,.06-.31,0-.71-.19a2.8,2.8,0,0,1-1.15-1.36,2.76,2.76,0,0,1-.08-1.78c.14-.44.33-.66.39-.63a6.35,6.35,0,0,0,.17,2.22C446.32,180.43,447.32,180.9,447.25,181Z" style="fill:#263238"></path><path d="M435.83,303.93a2.12,2.12,0,0,1-.36-.33,8.05,8.05,0,0,1-.87-1.1,12.11,12.11,0,0,1-1.81-4.8,20.44,20.44,0,0,1,.34-7.61c.57-2.82,1.59-5.81,2.33-9a44.08,44.08,0,0,0,.52-16.67,46.61,46.61,0,0,0-1.07-5,16.88,16.88,0,0,1-.48-1.81s.09.14.2.44.29.73.47,1.31a38,38,0,0,1,1.24,5,42.07,42.07,0,0,1-.37,16.85c-.76,3.23-1.78,6.2-2.37,9a20.46,20.46,0,0,0-.44,7.45,12.4,12.4,0,0,0,1.62,4.75C435.4,303.41,435.87,303.89,435.83,303.93Z" style="fill:#263238"></path><path d="M478.29,302.74c-.05,0,0-.35-.15-.95a5.54,5.54,0,0,0-1.19-2.25,20.48,20.48,0,0,0-2.82-2.65,43.72,43.72,0,0,0-3.85-2.81,44.46,44.46,0,0,0-7.71-3.94c-2.07-.8-3.4-1.18-3.37-1.26a3,3,0,0,1,1,.17c.61.14,1.48.39,2.54.75a36.95,36.95,0,0,1,11.74,6.72,18.43,18.43,0,0,1,2.8,2.79,5.27,5.27,0,0,1,1.1,2.45A1.87,1.87,0,0,1,478.29,302.74Z" style="fill:#263238"></path><path d="M446.82,206a6,6,0,0,0-2.36,1.25,60,60,0,0,0-4.53,4.82c-1.7,1.95-3.15,3.8-4.18,5.15a17.34,17.34,0,0,1-1.73,2.15,12.88,12.88,0,0,1,1.43-2.37,58.61,58.61,0,0,1,4.08-5.27,40.86,40.86,0,0,1,4.7-4.76,4.83,4.83,0,0,1,1.83-.93A1.33,1.33,0,0,1,446.82,206Z" style="fill:#263238"></path><path d="M467.56,231.63a5.49,5.49,0,0,1-1.18-.24c-.75-.17-1.82-.48-3.13-.91a65,65,0,0,1-9.86-4.29c-3.72-2-6.92-4-9.21-5.56-1.14-.76-2.06-1.39-2.68-1.84a5.1,5.1,0,0,1-.94-.74,5.06,5.06,0,0,1,1.05.57l2.77,1.7c2.34,1.45,5.56,3.44,9.25,5.41a78.38,78.38,0,0,0,9.75,4.4c1.28.47,2.33.83,3.06,1.07A4.75,4.75,0,0,1,467.56,231.63Z" style="fill:#263238"></path><path d="M437.9,337.66c-6.73,4.45-13.55,8.84-20.94,12.07s-15.44,5.27-23.49,4.79c-13.63-.82-25.73-8.61-37.11-16.15a54.1,54.1,0,0,1,41.53-18.94c15.72.22,30.23,5.91,40,18.23" style="fill:#455a64"></path><path d="M407.39,190.43s.12.2.18.61a5,5,0,0,1-.1,1.74,14.38,14.38,0,0,1-2.7,5c-1.28,1.78-2.46,3.37-3.33,4.51a10.42,10.42,0,0,1-1.51,1.78,10.63,10.63,0,0,1,1.21-2c.8-1.19,1.93-2.81,3.21-4.59a16.62,16.62,0,0,0,2.76-4.76A9.58,9.58,0,0,0,407.39,190.43Z" style="fill:#263238"></path><path d="M387.32,178.23c.1,0,.26,1,1.05,2.33a19,19,0,0,0,4.06,4.6,32.4,32.4,0,0,1,4.48,4.37,6.24,6.24,0,0,1,1.29,2.26c-.08,0-.53-.84-1.57-2a47.87,47.87,0,0,0-4.54-4.21,16.78,16.78,0,0,1-4-4.81,7.84,7.84,0,0,1-.66-1.8A1.75,1.75,0,0,1,387.32,178.23Z" style="fill:#263238"></path><path d="M375.67,224a10,10,0,0,1-1.51.42l-4.14.95c-3.51.79-8.36,1.84-13.72,3l-7.57,1.57c-2.32.46-4.41.94-6.21,1.15a12.31,12.31,0,0,1-4.28-.11,6.89,6.89,0,0,1-1.11-.36,1.34,1.34,0,0,1-.36-.19s.53.18,1.51.35a13.11,13.11,0,0,0,4.19,0c1.76-.26,3.85-.77,6.17-1.26l7.56-1.61c5.36-1.13,10.22-2.12,13.74-2.82l4.18-.79A7.88,7.88,0,0,1,375.67,224Z" style="fill:#263238"></path><path d="M350.12,188.09c.13-.07,3,5.47,6.34,12.35s6,12.52,5.87,12.59-3-5.47-6.34-12.36S350,188.15,350.12,188.09Z" style="fill:#263238"></path><path d="M380.12,261.43a12.48,12.48,0,0,1-1.73-.2c-.54-.08-1.22-.18-2-.26s-1.68-.21-2.67-.27c-2-.17-4.34-.27-7-.25a80.13,80.13,0,0,0-8.5.61,77.91,77.91,0,0,0-8.38,1.63c-2.53.66-4.79,1.37-6.65,2.06-.94.31-1.77.67-2.51.95s-1.36.55-1.87.77a11.49,11.49,0,0,1-1.61.64,12.31,12.31,0,0,1,1.53-.82c.5-.25,1.11-.55,1.84-.86s1.55-.69,2.49-1a66.19,66.19,0,0,1,6.66-2.18,73.11,73.11,0,0,1,8.43-1.67,71.41,71.41,0,0,1,8.56-.58,64.28,64.28,0,0,1,7,.37c1,.08,1.88.23,2.67.34s1.45.24,2,.35A10.27,10.27,0,0,1,380.12,261.43Z" style="fill:#263238"></path><path d="M353.11,307.86a23.8,23.8,0,0,0,4.05-4.3,25.4,25.4,0,0,0,3-5.68,44.25,44.25,0,0,0,2.07-7.59c1-5.52,1.47-10.62,2.37-14.22a35.05,35.05,0,0,1,1.25-4.2c.17-.48.34-.85.44-1.1s.18-.38.2-.37a11.65,11.65,0,0,1-.45,1.54c-.31,1-.7,2.42-1.08,4.21-.81,3.59-1.25,8.67-2.22,14.23a42.63,42.63,0,0,1-2.13,7.68,24.76,24.76,0,0,1-3.12,5.72,17,17,0,0,1-3,3.17,9,9,0,0,1-1,.71C353.24,307.81,353.12,307.88,353.11,307.86Z" style="fill:#263238"></path><path d="M382,304.31a15.47,15.47,0,0,1-2.94,1,68.86,68.86,0,0,1-7.3,1.55,71.23,71.23,0,0,1-7.42.77,15.71,15.71,0,0,1-3.09,0,20.61,20.61,0,0,1,3.07-.36c1.89-.19,4.5-.47,7.36-.93s5.44-1,7.3-1.39A20.12,20.12,0,0,1,382,304.31Z" style="fill:#263238"></path><path d="M414.12,108.12a4.18,4.18,0,0,1,0,.66c0,.44,0,1.08,0,1.91a43.13,43.13,0,0,0,.7,7,66.51,66.51,0,0,0,2.7,10c1.28,3.7,2.92,7.68,4.57,11.91a131.82,131.82,0,0,1,6.5,22.26c.61,2.91,1.06,5.27,1.36,6.9.13.77.24,1.4.33,1.88a4,4,0,0,1,.08.66,2.86,2.86,0,0,1-.19-.64l-.42-1.86c-.37-1.68-.89-4-1.52-6.86a143.51,143.51,0,0,0-6.63-22.16c-1.64-4.21-3.28-8.21-4.53-11.94a63.7,63.7,0,0,1-2.62-10.11,39.37,39.37,0,0,1-.53-7c0-.83.06-1.48.11-1.91A2.94,2.94,0,0,1,414.12,108.12Z" style="fill:#263238"></path><path d="M427.49,121.33a20,20,0,0,1-.21,3.38c-.21,2.08-.57,5-1.08,8.11s-1.06,6-1.52,8a19.88,19.88,0,0,1-.86,3.28,24.3,24.3,0,0,1,.5-3.35c.36-2.06.86-4.9,1.37-8.05s.92-6,1.23-8.06A24.46,24.46,0,0,1,427.49,121.33Z" style="fill:#263238"></path><path d="M418.4,129.9a7.54,7.54,0,0,1-2-.89,36.39,36.39,0,0,1-4.45-2.84,35.61,35.61,0,0,1-4-3.44,7.79,7.79,0,0,1-1.43-1.65c.11-.11,2.45,2.25,5.74,4.68S418.47,129.76,418.4,129.9Z" style="fill:#263238"></path><path d="M437.9,337.66a6,6,0,0,1-.83-.14l-2.35-.5c-1-.23-2.26-.5-3.72-.76s-3.11-.62-4.95-.89l-2.89-.46-3.14-.42c-2.17-.31-4.5-.5-6.95-.76-4.91-.39-10.32-.63-16-.57s-11.09.47-16,1c-2.44.29-4.77.57-6.93.93s-4.17.69-6,1-3.48.71-4.93,1-2.68.6-3.7.85l-2.33.56a6.69,6.69,0,0,1-.83.16,4.5,4.5,0,0,1,.8-.26l2.31-.65c1-.28,2.24-.62,3.69-.94s3.08-.76,4.92-1.1,3.83-.77,6-1.09,4.49-.67,6.94-1c4.91-.55,10.33-1,16-1s11.13.21,16.05.63c2.46.26,4.8.47,7,.8l3.14.45,2.89.5c1.85.3,3.5.66,4.95,1s2.7.58,3.71.84l2.33.6A4.76,4.76,0,0,1,437.9,337.66Z" style="fill:#263238"></path><path d="M401.85,319.44c0,.08-1.34.69-3.49,1.79a77.54,77.54,0,0,0-8.11,4.82,75.88,75.88,0,0,0-7.42,5.81c-1.81,1.61-2.88,2.66-2.94,2.6a5.35,5.35,0,0,1,.67-.82c.45-.5,1.14-1.21,2-2.05A59.41,59.41,0,0,1,398.2,320.9c1.1-.51,2-.89,2.64-1.13A4.39,4.39,0,0,1,401.85,319.44Z" style="fill:#263238"></path><path d="M419.75,348.59a4.52,4.52,0,0,1-1.14-.15,28.85,28.85,0,0,1-3.05-.76,38.78,38.78,0,0,1-9.39-4.3,38.18,38.18,0,0,1-7.92-6.65,26.7,26.7,0,0,1-2-2.42,5.11,5.11,0,0,1-.63-1c.08-.06,1.06,1.24,2.89,3.13a42.59,42.59,0,0,0,17.16,10.85C418.16,348.17,419.77,348.5,419.75,348.59Z" style="fill:#263238"></path><path d="M367.29,328.62c.07.13-2.68,1.88-5.54,4.72-1.44,1.39-2.72,2.7-3.69,3.6a8.21,8.21,0,0,1-1.66,1.38,9.54,9.54,0,0,1,1.39-1.64c.9-1,2.14-2.31,3.6-3.72a29.6,29.6,0,0,1,4-3.3A7.38,7.38,0,0,1,367.29,328.62Z" style="fill:#263238"></path></g><g id="freepik--plant-1--inject-146"><path d="M90.18,257.67A115.27,115.27,0,0,1,77,242.86c-3.83-5.4-6.82-11.53-7.78-18.08-1.63-11.1,2.6-22.13,6.76-32.54a44.43,44.43,0,0,1,22.19,30.21c2.45,12.68.31,25.29-7.95,35.22" style="fill:#455a64"></path><path d="M69.61,335c-8.24,2.19-16.23,5.79-22.57,11.47-10.74,9.64-15.62,24-20.07,37.74a57.13,57.13,0,0,0,46.78-11.63C86.6,362,94.86,347.81,94.85,331.2,86.36,331.94,77.84,332.79,69.61,335Z" style="fill:#455a64"></path><path d="M83.36,263.45c-15-13.11-37-13.61-55.53-21a164.31,164.31,0,0,0,24.39,43.83c5.32,6.84,11.28,13.33,18.54,18.07s16,7.61,24.6,6.74l.84-.1C101.05,294.34,96.43,274.83,83.36,263.45Z" style="fill:#455a64"></path><path d="M165.38,228.29c-2.16-9.58-6.07-18.66-10-27.68-17,8.71-34.83,18.18-44.76,34.49-7.36,12.07-9.51,26.83-8,40.89s6.08,26.58,12.05,39.4h0c5.88-11,17.75-20.68,27.1-28.93s18.71-17.34,22.83-29.11C167.86,248.08,167.54,237.87,165.38,228.29Z" style="fill:#455a64"></path><path d="M32.3,381.29s0-.08.14-.2l.46-.55,1.8-2.08c1.57-1.8,3.86-4.39,6.74-7.55a220.45,220.45,0,0,1,24-23.18,122.06,122.06,0,0,1,15.14-10.44,91.89,91.89,0,0,1,13.55-6.48,73.93,73.93,0,0,1,9.68-3c1.16-.29,2.08-.43,2.7-.55l.7-.13a.93.93,0,0,1,.25,0l-.24.07-.69.18c-.61.16-1.52.33-2.67.65a83.57,83.57,0,0,0-9.6,3.11,95.92,95.92,0,0,0-13.44,6.55,124.73,124.73,0,0,0-15,10.44,237.51,237.51,0,0,0-24.06,23l-6.86,7.43-1.87,2-.5.51A.86.86,0,0,1,32.3,381.29Z" style="fill:#263238"></path><path d="M110.62,326.37s-.09-.06-.23-.2l-.63-.64c-.56-.6-1.36-1.43-2.37-2.49-2.06-2.16-5.06-5.25-8.83-9-7.52-7.56-18.12-17.8-29.78-29.17S46.67,263.07,39.35,255.3c-1.84-1.93-3.49-3.69-4.9-5.27s-2.67-2.91-3.63-4.05l-2.24-2.61q-.36-.42-.57-.69a1,1,0,0,1-.18-.24,1.18,1.18,0,0,1,.22.21l.61.65L31,245.84c1,1.12,2.25,2.44,3.69,4s3.1,3.3,5,5.22c7.38,7.7,17.86,18.06,29.53,29.42s22.21,21.65,29.67,29.28c3.74,3.81,6.7,6.95,8.72,9.15l2.3,2.56.59.67A2.71,2.71,0,0,1,110.62,326.37Z" style="fill:#263238"></path><path d="M155.41,200.61a1.08,1.08,0,0,1-.15.3l-.48.87-1.9,3.31c-1.64,2.87-4,7-6.83,12.24s-6.17,11.4-9.72,18.38a229.7,229.7,0,0,0-10.54,23.13c-1.59,4.22-3,8.4-4.18,12.48s-2.19,8.07-3,11.89a172,172,0,0,0-3.13,20.52c-.53,5.89-.65,10.68-.71,14v3.81l0,1a1.23,1.23,0,0,1,0,.34,135.74,135.74,0,0,1,.39-19.16,167,167,0,0,1,3-20.59c.81-3.83,1.79-7.84,3-11.93s2.58-8.29,4.18-12.52a224.23,224.23,0,0,1,10.6-23.17c3.58-7,6.94-13.17,9.82-18.34s5.29-9.32,7-12.16c.84-1.43,1.51-2.53,2-3.26.22-.35.39-.63.53-.84A1.87,1.87,0,0,1,155.41,200.61Z" style="fill:#263238"></path><path d="M68.42,319.54A13,13,0,0,1,76,311.69a22,22,0,0,1,11.07-1.23,21.43,21.43,0,0,1,11.75,4.69c3.22,2.83,5.2,7.29,4.3,11.48l-.77,2.19a18.92,18.92,0,0,1-29.66,4.28C69.1,329.63,67,324.31,68.42,319.54Z" style="fill:#9180C2"></path><g style="opacity:0.30000000000000004"><path d="M79,316.54A7.28,7.28,0,0,1,83.53,315a11.11,11.11,0,0,1,7.37,2.28,5.75,5.75,0,0,1,2.4,3.34,4.52,4.52,0,0,1-1.22,3.79,7.6,7.6,0,0,1-3.53,2,11.59,11.59,0,0,1-7.2-.29,6.73,6.73,0,0,1-4.25-3.93A5.48,5.48,0,0,1,79,316.54Z" style="fill:#fff"></path></g><path d="M79.72,319.39a1.54,1.54,0,0,1,1.78-.73,2.4,2.4,0,0,1,1.22,2.74A1.73,1.73,0,0,1,81,322.69a1.86,1.86,0,0,1-1.31-1.23A2.45,2.45,0,0,1,79.72,319.39Z" style="fill:#fff"></path><path d="M81.54,318.67h-.06Z" style="fill:#fff"></path><g style="opacity:0.30000000000000004"><path d="M69.35,328.49h0a52.64,52.64,0,0,0,6,4.34A17.8,17.8,0,0,0,82.5,335a18.32,18.32,0,0,0,10-1.91,21.58,21.58,0,0,0,6.58-4.68,15.07,15.07,0,0,0,3.77-7.05,10.58,10.58,0,0,1,.29,5.27l-.77,2.19a18.92,18.92,0,0,1-29.66,4.28A16.17,16.17,0,0,1,69.35,328.49Z"></path></g><g style="opacity:0.30000000000000004"><path d="M74.48,318.84a6,6,0,0,1-.38,4.29c-.1.21-.26.45-.5.45s-.45-.29-.53-.56a5.86,5.86,0,0,1,.18-2.87,2.53,2.53,0,0,1,.31-.86.84.84,0,0,1,.78-.41"></path></g><path d="M73.25,324.14c0-.06.25-.32.6-.81a4.51,4.51,0,0,0,.57-4.39c-.21-.56-.43-.89-.37-.94s.38.21.7.78a4,4,0,0,1,.47,2.5,4.07,4.07,0,0,1-1.09,2.29C73.67,324,73.29,324.19,73.25,324.14Z" style="fill:#263238"></path><path d="M105.7,297.82a11.52,11.52,0,0,0-5.67,7.8,19.61,19.61,0,0,0,.66,9.84A19,19,0,0,0,106.6,325c3,2.36,7.15,3.39,10.66,2l1.8-1a16.75,16.75,0,0,0-.89-26.51C114.59,296.83,109.62,295.8,105.7,297.82Z" style="fill:#9180C2"></path><g style="opacity:0.30000000000000004"><path d="M104.73,307.47a6.43,6.43,0,0,0-.63,4.21,9.87,9.87,0,0,0,3.14,6.06,5.07,5.07,0,0,0,3.29,1.57,4,4,0,0,0,3.1-1.65,6.63,6.63,0,0,0,1.22-3.39,10.26,10.26,0,0,0-1.37-6.22,6,6,0,0,0-4.09-3.1A4.84,4.84,0,0,0,104.73,307.47Z" style="fill:#fff"></path></g><path d="M107.32,307.68a1.36,1.36,0,0,0-.35,1.66,2.11,2.11,0,0,0,2.57.64,1.54,1.54,0,0,0,.85-1.72,1.66,1.66,0,0,0-1.28-.95A2.19,2.19,0,0,0,107.32,307.68Z" style="fill:#fff"></path><path d="M107,309.38s0,0,0,0h0Z" style="fill:#fff"></path><g style="opacity:0.30000000000000004"><path d="M113.63,297.23h0a46.41,46.41,0,0,1,4.72,4.58,15.77,15.77,0,0,1,3,5.86,16,16,0,0,1-.12,9,18.73,18.73,0,0,1-3,6.46,13.22,13.22,0,0,1-5.55,4.38,9.25,9.25,0,0,0,4.63-.56l1.8-1a16.75,16.75,0,0,0-.89-26.51A14.23,14.23,0,0,0,113.63,297.23Z"></path></g><g style="opacity:0.30000000000000004"><path d="M106,303.2a5.28,5.28,0,0,0,3.68-1,.59.59,0,0,0,.31-.51c0-.24-.32-.34-.57-.37a5.3,5.3,0,0,0-2.47.6,2.23,2.23,0,0,0-.7.41.75.75,0,0,0-.24.74"></path></g><path d="M110.46,301.31c.06,0,0,.38-.35.86a3.58,3.58,0,0,1-4.09,1.3c-.56-.2-.82-.46-.79-.51a6.47,6.47,0,0,0,2.89,0A6.63,6.63,0,0,0,110.46,301.31Z" style="fill:#263238"></path><path d="M94.51,343a9.84,9.84,0,0,1,3-7.69,16.64,16.64,0,0,1,7.37-4.07,16.19,16.19,0,0,1,9.57-.14,9.36,9.36,0,0,1,6.34,6.77l.11,1.75a14.33,14.33,0,0,1-19.48,11.61C97.91,349.82,94.87,346.72,94.51,343Z" style="fill:#9180C2"></path><g style="opacity:0.30000000000000004"><path d="M101,337.81a5.52,5.52,0,0,1,2.74-2.39,8.42,8.42,0,0,1,5.81-.55,4.33,4.33,0,0,1,2.65,1.64,3.4,3.4,0,0,1,.25,3,5.76,5.76,0,0,1-1.88,2.44,8.78,8.78,0,0,1-5.1,1.89,5.13,5.13,0,0,1-4.12-1.51A4.15,4.15,0,0,1,101,337.81Z" style="fill:#fff"></path></g><path d="M102.36,339.58a1.15,1.15,0,0,1,1-1,1.83,1.83,0,0,1,1.65,1.56,1.31,1.31,0,0,1-.85,1.4,1.37,1.37,0,0,1-1.27-.47A1.82,1.82,0,0,1,102.36,339.58Z" style="fill:#fff"></path><path d="M103.42,338.54h0Z" style="fill:#fff"></path><g style="opacity:0.30000000000000004"><path d="M97.75,349h0a41.11,41.11,0,0,0,5.48,1.28,13.83,13.83,0,0,0,12-4.79,16.24,16.24,0,0,0,3.23-5.18,11.35,11.35,0,0,0,.59-6,7.9,7.9,0,0,1,1.73,3.6l.11,1.75a14.33,14.33,0,0,1-19.48,11.61A12.31,12.31,0,0,1,97.75,349Z"></path></g><g style="opacity:0.30000000000000004"><path d="M98.53,340.71a4.55,4.55,0,0,1,1,3.11c0,.18-.06.39-.22.47s-.41-.08-.53-.24a4.5,4.5,0,0,1-.72-2.06,2,2,0,0,1,0-.69.66.66,0,0,1,.43-.52"></path></g><path d="M99.22,344.78a6.44,6.44,0,0,0,.1-2.46A5.87,5.87,0,0,0,98,340.26c0-.06.34,0,.75.3a3.09,3.09,0,0,1,1,3.57C99.51,344.6,99.27,344.81,99.22,344.78Z" style="fill:#263238"></path><path d="M165.87,251.35s-.13.11-.41.28-.69.43-1.23.71a46.87,46.87,0,0,1-4.76,2.22c-4.09,1.71-10,3.33-16.47,5.15A69.52,69.52,0,0,0,127.06,266a38.9,38.9,0,0,0-4.32,2.9,19,19,0,0,1-1.51,1.18s.1-.14.34-.37.57-.57,1.05-1a31.41,31.41,0,0,1,4.25-3.07c3.76-2.37,9.5-4.67,16-6.5s12.38-3.38,16.48-5c2.06-.78,3.69-1.51,4.79-2.05A16.67,16.67,0,0,1,165.87,251.35Z" style="fill:#263238"></path><path d="M129,217.7a16.52,16.52,0,0,0-2.16,4.42,19,19,0,0,0-.71,5.29,34.39,34.39,0,0,0,.67,6.53c.44,2.3,1,4.48,1.33,6.49a37.67,37.67,0,0,1,.68,5.4,19.94,19.94,0,0,1-.16,3.66,5.43,5.43,0,0,1-.29,1.32,38.35,38.35,0,0,0,.08-5,41.85,41.85,0,0,0-.78-5.33c-.4-2-.93-4.17-1.37-6.48a32.87,32.87,0,0,1-.64-6.64,18.33,18.33,0,0,1,.83-5.39,12,12,0,0,1,1.64-3.29,5.75,5.75,0,0,1,.63-.78C128.92,217.77,129,217.69,129,217.7Z" style="fill:#263238"></path><path d="M76,192.75a3.21,3.21,0,0,1,.21.66c.13.49.3,1.13.52,1.92.44,1.73,1,4.14,1.79,7.08l5.73,23.4c2.23,9.15,4.18,17.45,5.19,23.55.52,3,.85,5.52,1,7.23.1.86.15,1.53.19,2a3.28,3.28,0,0,1,0,.69,4.37,4.37,0,0,1-.13-.68c-.07-.5-.16-1.15-.28-2-.25-1.71-.63-4.17-1.2-7.2-1.09-6.06-3.1-14.34-5.33-23.48s-4.14-17.39-5.58-23.44c-.68-3-1.23-5.38-1.63-7.12-.17-.8-.31-1.45-.42-1.94A3.26,3.26,0,0,1,76,192.75Z" style="fill:#263238"></path><path d="M94.77,214a27.38,27.38,0,0,1-1.37,3.07c-.87,1.87-2,4.49-3.11,7.44s-1.93,5.69-2.49,7.68a25.4,25.4,0,0,1-1,3.21,3.79,3.79,0,0,1,.1-.9c.1-.57.27-1.39.5-2.4a67.86,67.86,0,0,1,5.63-15.2c.48-.92.89-1.65,1.19-2.15A3.37,3.37,0,0,1,94.77,214Z" style="fill:#263238"></path><path d="M70,208.49a10.66,10.66,0,0,1,2.49,1.24A28.19,28.19,0,0,1,82,219.2a11,11,0,0,1,1.23,2.5,24.11,24.11,0,0,1-1.54-2.3,36.27,36.27,0,0,0-4.2-5.13A35.49,35.49,0,0,0,72.33,210,26.53,26.53,0,0,1,70,208.49Z" style="fill:#263238"></path><path d="M67,255.77a7.13,7.13,0,0,1,.46,1.41c.29,1,.65,2.31,1.09,3.88.91,3.29,2.18,7.82,3.65,12.81s2.86,9.48,3.88,12.73l1.19,3.86a9.14,9.14,0,0,1,.38,1.44,7.25,7.25,0,0,1-.57-1.38c-.34-.89-.8-2.19-1.35-3.8-1.11-3.23-2.56-7.71-4-12.71s-2.68-9.54-3.5-12.85c-.41-1.66-.73-3-.93-3.93A8.43,8.43,0,0,1,67,255.77Z" style="fill:#263238"></path><path d="M42,272.25a2,2,0,0,1-.57-.19l.07-.14c1.41.53,5.77,2.41,11,4.37,3.22,1.21,6.16,2.22,8.3,2.94a30.4,30.4,0,0,1,3.44,1.23,3.32,3.32,0,0,1-1-.18c-.61-.15-1.49-.38-2.58-.7-2.17-.63-5.14-1.59-8.38-2.8a102.37,102.37,0,0,1-10.91-4.72l.06-.13C41.85,272.12,42,272.22,42,272.25Z" style="fill:#263238"></path><path d="M52.61,383.91a7.35,7.35,0,0,1,.48-1.43c.35-.9.81-2.23,1.36-3.87,1.1-3.27,2.33-7.89,3.84-13,.76-2.54,1.57-4.93,2.41-7.07a48.76,48.76,0,0,1,2.59-5.53c.4-.77.84-1.43,1.2-2a14.88,14.88,0,0,1,1-1.46,8.56,8.56,0,0,1,.94-1.18,8.29,8.29,0,0,1-.78,1.29c-.27.4-.59.9-.92,1.5s-.75,1.26-1.12,2a50.59,50.59,0,0,0-2.47,5.52c-.81,2.14-1.6,4.52-2.37,7.05-1.5,5.06-2.79,9.67-4,12.93-.59,1.64-1.1,2.94-1.51,3.82A9,9,0,0,1,52.61,383.91Z" style="fill:#263238"></path><path d="M57.19,354a26.08,26.08,0,0,1-2.9.14,49,49,0,0,0-13.64,2.55,24,24,0,0,1-2.75.9,12.19,12.19,0,0,1,2.62-1.25,38.52,38.52,0,0,1,6.76-1.93,37.5,37.5,0,0,1,7-.63A12.11,12.11,0,0,1,57.19,354Z" style="fill:#263238"></path></g><g id="freepik--Mug--inject-146"><ellipse cx="241.36" cy="445.54" rx="111.23" ry="27.39" style="fill:#e0e0e0"></ellipse><ellipse cx="243.2" cy="450.18" rx="51.3" ry="11.81" style="opacity:0.30000000000000004"></ellipse><path d="M343.69,445.54s-.1.15-.31.43a12.71,12.71,0,0,1-1,1.19,23.61,23.61,0,0,1-4.63,3.82,50,50,0,0,1-8.48,4.28,103.11,103.11,0,0,1-12,3.88c-9,2.42-20,4.21-32.14,6.12a274,274,0,0,1-39.93,3.3,361.74,361.74,0,0,1-40-1.65A271.68,271.68,0,0,1,172.83,462a113.2,113.2,0,0,1-21.08-6.47c-1.2-.51-2.22-1.06-3.12-1.5s-1.62-.92-2.2-1.28l-1.28-.89c-.29-.2-.43-.32-.43-.32l.46.28,1.31.84c.59.35,1.34.75,2.21,1.23s1.93,1,3.13,1.46a117.14,117.14,0,0,0,21.08,6.29,277.29,277.29,0,0,0,32.32,4.82,368.61,368.61,0,0,0,40,1.61,278.87,278.87,0,0,0,39.85-3.25c12.17-1.89,23.13-3.64,32.13-6a104.41,104.41,0,0,0,12-3.79,51.37,51.37,0,0,0,8.47-4.18,25.4,25.4,0,0,0,4.67-3.72,14.78,14.78,0,0,0,1-1.16Z" style="fill:#263238"></path><path d="M130.3,327.12s-.84,128.59,109.16,131.2h.7c110-2.61,112.26-132.7,112.26-132.7Z" style="fill:#9180C2"></path><path d="M134.24,361.13s0,.2.08.6a7.18,7.18,0,0,0,.29,1.74,13.39,13.39,0,0,0,3.3,5.84c3.94,4.42,11.55,8.8,21.52,12.27,20,7,49.25,11.27,81.52,11.3s61.56-4.26,81.53-11.3c10-3.47,17.57-7.85,21.52-12.27a13.6,13.6,0,0,0,3.3-5.84,8.34,8.34,0,0,0,.29-1.74c0-.4.08-.6.08-.6s0,.2,0,.6a7.3,7.3,0,0,1-.24,1.76,13.3,13.3,0,0,1-3.25,5.95c-3.94,4.51-11.57,9-21.55,12.49-20,7.15-49.33,11.45-81.65,11.47s-61.64-4.32-81.65-11.47c-10-3.52-17.6-8-21.55-12.49a13.4,13.4,0,0,1-3.25-5.95,7.3,7.3,0,0,1-.24-1.76C134.24,361.33,134.24,361.13,134.24,361.13Z" style="fill:#fff"></path><path d="M236.21,450.26c-16.07-2.9-27.75-4.72-47.34-16.71-13.12-8-22.71-19.5-32-31.74s-15.07-27.43-22.57-40.68c8,38.29,32.21,95.46,105.18,97.19h.7c16.45-.39,30.48-3.65,42.47-8.88C268,449.91,250.63,452.87,236.21,450.26Z" style="opacity:0.3"></path><ellipse cx="241.36" cy="327.12" rx="111.06" ry="32.01" style="fill:#9180C2"></ellipse><path d="M146,334.86c12.87-10.21,50.52-17.61,95-17.61s82.09,7.4,95,17.61c3.08-2.44,4.75-5,4.75-7.74,0-14-44.64-25.36-99.71-25.36s-99.7,11.35-99.7,25.36C141.25,329.82,142.91,332.42,146,334.86Z" style="opacity:0.30000000000000004"></path><path d="M352.42,327.12a12.05,12.05,0,0,0-1.26-4.7,19,19,0,0,0-3.67-4.65A38.74,38.74,0,0,0,340.9,313c-10.63-6.14-27.91-11.19-49.56-14.32a332.88,332.88,0,0,0-35.67-3.12,382.21,382.21,0,0,0-41.1.69,277.84,277.84,0,0,0-44.88,6.65c-3.83.91-7.65,2-11.46,3.24A95.86,95.86,0,0,0,147,310.54a47.36,47.36,0,0,0-10.43,6.34,19.81,19.81,0,0,0-4.12,4.5,9.78,9.78,0,0,0,0,11.46,19.83,19.83,0,0,0,4.12,4.51A47.53,47.53,0,0,0,147,343.69a96.75,96.75,0,0,0,11.27,4.37c3.81,1.22,7.63,2.32,11.46,3.24a277,277,0,0,0,44.89,6.64,379.78,379.78,0,0,0,41.1.7,333,333,0,0,0,35.68-3.13c21.65-3.12,38.92-8.18,49.55-14.32a38.34,38.34,0,0,0,6.59-4.73,18.74,18.74,0,0,0,3.67-4.64,12.09,12.09,0,0,0,1.26-4.7s0,.42-.09,1.25a10.94,10.94,0,0,1-1.08,3.5,18.6,18.6,0,0,1-3.66,4.7,37.77,37.77,0,0,1-6.58,4.8c-10.64,6.22-27.94,11.33-49.61,14.51a332.82,332.82,0,0,1-35.71,3.19,377.61,377.61,0,0,1-41.15-.65,275.93,275.93,0,0,1-45-6.63c-3.84-.91-7.68-2-11.5-3.24a99.18,99.18,0,0,1-11.33-4.39,47.52,47.52,0,0,1-10.53-6.42,20,20,0,0,1-4.23-4.62,10.3,10.3,0,0,1,0-12,20.48,20.48,0,0,1,4.23-4.62,47.92,47.92,0,0,1,10.54-6.41,98.25,98.25,0,0,1,11.32-4.38c3.83-1.23,7.66-2.33,11.5-3.25a276.7,276.7,0,0,1,45-6.62,377.46,377.46,0,0,1,41.14-.65,330,330,0,0,1,35.71,3.19c21.68,3.17,39,8.29,49.61,14.51a38,38,0,0,1,6.59,4.79,18.62,18.62,0,0,1,3.66,4.71,10.86,10.86,0,0,1,1.08,3.5C352.4,326.7,352.42,327.12,352.42,327.12Z" style="fill:#263238"></path><ellipse cx="240.95" cy="334.86" rx="94.96" ry="17.62" style="fill:#6f4439"></ellipse><path d="M300.1,322.19a2.17,2.17,0,0,0-1.51.79c-1,1.39.41,3.33,2,4,2.71,1.21,5.83.86,8.76.46s6-.81,8.78.32,4.83,4.42,3.57,7.11c-.78,1.68-2.59,2.63-4.35,3.26-11.46,4.11-24.37-.49-36.26,2.14-8.39,1.85-9.88,11.4-18.47,11.25-5.47-.1-16.92-6.62-22.38-6.41-4.58.17-8.87,2.14-13.28,3.42-12.16,3.55-25.16,1.85-37.71.12a38.37,38.37,0,0,1-10.29-2.4c-3.23-1.42-6.16-3.91-7.3-7.26-.47-1.4-.64-2.95-1.51-4.15-1.61-2.18-4.9-2.25-7.46-1.34s-4.82,2.56-7.46,3.18-9.21,1.33-6-4.07l-.07.05-3.12,2.22C159,345.11,196.58,352.48,241,352.48s82.09-7.4,95-17.62C329.46,329.74,316.76,325.32,300.1,322.19Zm-64.15,29a2.78,2.78,0,0,1-1.73-.17c-.21-.09-.44-.29-.37-.51a.47.47,0,0,1,.3-.23,2.67,2.67,0,0,1,1.24-.21,1.69,1.69,0,0,1,.83.34.51.51,0,0,1,.23.35C236.45,351,236.18,351.18,236,351.23Zm6.32-1a6.93,6.93,0,0,1-4.26-.43c-.52-.23-1.08-.71-.89-1.24a1.09,1.09,0,0,1,.72-.58,6.56,6.56,0,0,1,3.07-.52,4.15,4.15,0,0,1,2,.83,1.21,1.21,0,0,1,.57.89C243.51,349.75,242.84,350.09,242.27,350.21Zm36.59-3.13a2.78,2.78,0,0,1-1.73-.17c-.21-.09-.44-.29-.36-.5a.44.44,0,0,1,.29-.24,2.73,2.73,0,0,1,1.25-.21,1.66,1.66,0,0,1,.82.34.48.48,0,0,1,.23.36C279.37,346.89,279.09,347,278.86,347.08Zm9-.44a11.9,11.9,0,0,1-7.28-.73c-.88-.39-1.85-1.22-1.53-2.13a1.94,1.94,0,0,1,1.24-1c1.49-.55,3.69-1.2,5.24-.89a7.19,7.19,0,0,1,3.47,1.42,2.09,2.09,0,0,1,1,1.51C290,345.84,288.82,346.43,287.84,346.64Zm9.2-2.4a8.63,8.63,0,0,1-4.4-.37c-.53-.2-1.11-.61-.92-1.06a1.15,1.15,0,0,1,.75-.5,8.13,8.13,0,0,1,3.16-.44,4.77,4.77,0,0,1,2.09.71c.3.19.58.44.59.75C298.32,343.84,297.63,344.13,297,344.24Z" style="fill:#ae7461"></path><path d="M290.85,324.52h-.31l-.89-.08-3.43-.37c-1.49-.17-3.3-.36-5.42-.55s-4.52-.44-7.19-.62-5.59-.43-8.73-.58-6.5-.31-10-.44c-7.07-.2-14.84-.26-23-.06s-15.92.68-23,1.22-13.38,1.23-18.69,1.9c-2.66.3-5.05.65-7.16.93s-3.91.55-5.39.77l-3.41.5-.89.11a2.2,2.2,0,0,1-.31,0,1.1,1.1,0,0,1,.3-.08l.88-.17,3.4-.59c1.47-.26,3.28-.55,5.38-.85s4.5-.69,7.16-1c5.3-.72,11.64-1.41,18.69-2s14.83-1,23-1.26,15.95-.13,23,.1c3.53.15,6.9.26,10,.49s6.06.41,8.73.64,5.07.48,7.19.7,3.93.44,5.41.64l3.42.46.89.14Z" style="fill:#fff"></path><path d="M349.53,361.37c.5-.18,1-.35,1.53-.49l-2.17.59a17,17,0,0,1,4.31-.58h-2.33a19.61,19.61,0,0,1,5.11.69l-2.24-.61a22.58,22.58,0,0,1,5.38,2.29l-1.94-1.14a23.67,23.67,0,0,1,4.65,3.63l-1.56-1.57a22.3,22.3,0,0,1,3.34,4.34c-.38-.64-.75-1.28-1.12-1.92a27.13,27.13,0,0,1,2.54,6.1c-.2-.72-.4-1.45-.59-2.17a31.59,31.59,0,0,1,1.06,8.15c0-.77,0-1.55,0-2.33a38.63,38.63,0,0,1-1.4,10.09c.21-.75.41-1.5.61-2.25a45.21,45.21,0,0,1-4.56,10.71l1.14-1.94a48.66,48.66,0,0,1-7.68,9.86l1.57-1.56a47.46,47.46,0,0,1-9.39,7.17l1.92-1.11a47.56,47.56,0,0,1-10.93,4.55l2.17-.6a48.8,48.8,0,0,1-12.55,1.7h2.33a47.82,47.82,0,0,1-10.66-1.22A8.68,8.68,0,0,0,310,425.62l1.56,1.58a8.58,8.58,0,0,0,4.19,1.75,55.49,55.49,0,0,0,54.69-18.89,56.89,56.89,0,0,0,7.73-12.29,44.33,44.33,0,0,0,2.28-6,55.58,55.58,0,0,0,1.91-8.26,49.58,49.58,0,0,0,.3-8.44,30.45,30.45,0,0,0-.86-6.23c-1.3-5.22-3.34-10.31-7-14.38a31.87,31.87,0,0,0-5.61-5.15,32.24,32.24,0,0,0-6.77-3.7,29.09,29.09,0,0,0-7.39-1.83,34.85,34.85,0,0,0-4.9-.08,16.84,16.84,0,0,0-2.65.33,31.48,31.48,0,0,0-4.67,1.33,8.67,8.67,0,0,0-4.66,11.35,8.69,8.69,0,0,0,4.61,4.64,9.28,9.28,0,0,0,6.74,0Z" style="fill:#9180C2"></path><path d="M346.73,362.09a3.59,3.59,0,0,1-1.14.26,9.76,9.76,0,0,1-3.18-.1,7.48,7.48,0,0,1-4.12-2.3,5.83,5.83,0,0,1-1.35-2.5,7.94,7.94,0,0,1-.13-3,17.22,17.22,0,0,1,1.81-5.49,9.23,9.23,0,0,1,3.2-3.48,6.85,6.85,0,0,1,3-1,2.76,2.76,0,0,1,1.16.09s-.42,0-1.14.11a7.33,7.33,0,0,0-2.84,1.14,9.06,9.06,0,0,0-3,3.4,17.21,17.21,0,0,0-1.72,5.33,7.69,7.69,0,0,0,.1,2.84,5.68,5.68,0,0,0,1.22,2.32,7.26,7.26,0,0,0,3.84,2.25,11.12,11.12,0,0,0,3.09.26A8.13,8.13,0,0,1,346.73,362.09Z" style="fill:#263238"></path><path d="M330.2,412.94s-.1.08-.33.19a4.82,4.82,0,0,1-1,.37,10.5,10.5,0,0,1-4,.17c-1.7-.19-3.66-.77-5.83-1.18a15.45,15.45,0,0,0-3.43-.26,7.29,7.29,0,0,0-3.48.94,5.61,5.61,0,0,0-2.32,2.67,10.48,10.48,0,0,0-.78,3.32,12.82,12.82,0,0,0,.58,5.77,6.52,6.52,0,0,0,2.34,3.06,14.08,14.08,0,0,0,1.28.69s-.14,0-.38-.07a4.37,4.37,0,0,1-1-.45,6.49,6.49,0,0,1-2.57-3.1,12.92,12.92,0,0,1-.72-5.94,10.92,10.92,0,0,1,.79-3.48,6,6,0,0,1,2.52-2.92,7.92,7.92,0,0,1,3.72-1,16.26,16.26,0,0,1,3.55.3c2.21.45,4.12,1.05,5.79,1.28a11.1,11.1,0,0,0,3.93,0C329.71,413.12,330.18,412.89,330.2,412.94Z" style="fill:#263238"></path></g><g id="freepik--coffee-beans--inject-146"><path d="M206.64,168.4c-5.57,12-22.34,16.84-36.53,10.24s-20.31-21.92-14.74-33.9,18.92-11.77,33.11-5.17c11.83,5.5,20.4,12.53,19.54,22.11A22,22,0,0,1,206.64,168.4Z" style="fill:#6f4439"></path><ellipse cx="182.33" cy="153.76" rx="16.67" ry="27.41" transform="translate(-33.99 254.24) rotate(-65.06)" style="fill:#ae7461"></ellipse><path d="M207.63,164.46c-.76.23-2-2.79-6-5.66a24.2,24.2,0,0,0-7.57-3.71,18.1,18.1,0,0,0-4.78-.66c-1.75,0-3.65.09-5.72.18a34.93,34.93,0,0,1-6.3-.18,33,33,0,0,1-5.78-1.24,29,29,0,0,1-5-2,24.29,24.29,0,0,1-3.94-2.52,16.54,16.54,0,0,1-4.46-5.08,5.72,5.72,0,0,1-.66-1.73c-.09-.43,0-.69.1-.78.68-.42,2.66,2.2,7,4.52a35.65,35.65,0,0,0,18.74,3.82c2-.09,4-.19,6.12-.08a20.27,20.27,0,0,1,6.07,1.2,22.4,22.4,0,0,1,8.53,5.52,14.58,14.58,0,0,1,3.59,5.81c.1.4.18.75.24,1.06a4.67,4.67,0,0,1,0,.81C207.9,164.17,207.8,164.41,207.63,164.46Z" style="fill:#6f4439"></path><path d="M207.7,164.46c0-.19-.11-.12-.18-.34a14.6,14.6,0,0,0-3.61-5.72,20.53,20.53,0,0,0-3.63-3,22.54,22.54,0,0,0-4.86-2.45,20.42,20.42,0,0,0-6-1.17c-2.07-.11-4.12,0-6.11.08A35.29,35.29,0,0,1,164.46,148a44.06,44.06,0,0,1-6.3-4.49l.19.34a16.74,16.74,0,0,0,4.47,5c.55.46,1.19.84,1.83,1.29s1.35.82,2.11,1.18a28.64,28.64,0,0,0,4.93,2,33.69,33.69,0,0,0,5.74,1.22l1.55.15c.53,0,1.05.06,1.58.08,1.06,0,2.1,0,3.13-.06,2.07-.08,4-.21,5.74-.18a18.62,18.62,0,0,1,4.85.69,23.71,23.71,0,0,1,4.21,1.69,22.77,22.77,0,0,1,3.4,2.12,21.3,21.3,0,0,1,4.2,4.08c.21.28.44.47.62.69s.33.42.47.57S207.55,164.44,207.7,164.46Z" style="opacity:0.30000000000000004"></path><path d="M197.07,151.51a10.79,10.79,0,0,1-1.52-.58,21.09,21.09,0,0,0-4.27-1,39.48,39.48,0,0,0-6.53-.2c-2.46.06-5.18.27-8.06.15a21.71,21.71,0,0,1-7.89-1.8,36.7,36.7,0,0,1-5.79-3.18c-1.57-1-2.79-1.94-3.62-2.57a9.09,9.09,0,0,1-1.27-1,10.1,10.1,0,0,1,1.38.87c.88.58,2.12,1.43,3.71,2.42a39.57,39.57,0,0,0,5.77,3.05,21.86,21.86,0,0,0,7.73,1.72c2.83.12,5.55-.07,8-.11a37.31,37.31,0,0,1,6.6.32,18.4,18.4,0,0,1,4.29,1.19c.48.21.84.42,1.08.55A1.62,1.62,0,0,1,197.07,151.51Z" style="fill:#263238"></path><path d="M206.3,163.22c-.07.07-1.13-1.25-3.17-3a25.27,25.27,0,0,0-9.13-5c-3.93-1.16-7.72-.66-10.41-.64a22.33,22.33,0,0,1-3.22-.12,4.18,4.18,0,0,1-1.16-.23,5.92,5.92,0,0,1,1.18,0,29.88,29.88,0,0,0,3.18-.05c1.35-.07,3-.21,4.76-.23a20,20,0,0,1,5.82.74,24,24,0,0,1,9.22,5.19,22.08,22.08,0,0,1,2.23,2.32A4.15,4.15,0,0,1,206.3,163.22Z" style="fill:#263238"></path><path d="M204.1,169.2s-.13.14-.41.36a13.79,13.79,0,0,1-1.32.89,20.34,20.34,0,0,1-5.45,2.05,29,29,0,0,1-8.63.52,28.32,28.32,0,0,1-5.06-.82,42.11,42.11,0,0,1-5.19-1.8,46.06,46.06,0,0,1-15.8-10.77,23.63,23.63,0,0,1-3.43-4.71,12.62,12.62,0,0,1-.68-1.43,2,2,0,0,1-.19-.52c.05,0,.36.68,1.05,1.85a25.71,25.71,0,0,0,3.52,4.56,47.59,47.59,0,0,0,15.73,10.54,31.39,31.39,0,0,0,18.6,2.22,21.5,21.5,0,0,0,5.43-1.87C203.48,169.63,204.08,169.16,204.1,169.2Z" style="fill:#263238"></path><g style="opacity:0.2"><path d="M200.25,150.05a1.17,1.17,0,0,0-.31-.78,30.78,30.78,0,0,0-18.38-12.08c-6.13-1.31-13.18-1.49-18.47,1.21-1.8.93-1.82,2.92-.16,4.07,3.35,2.33,8.52,5.34,12.8,5.76,4.76.46,9.55-1.08,14.31-.69a18.37,18.37,0,0,1,8.07,2.66,2.69,2.69,0,0,0,1.18.51A.86.86,0,0,0,200.25,150.05Z" style="fill:#fff"></path></g><g style="opacity:0.2"><path d="M163.32,154.59a1.3,1.3,0,0,0,.32.82,32.23,32.23,0,0,0,19.17,12.66c6.4,1.39,13.77,1.6,19.29-1.22,1.88-1,1.92-3,.19-4.25-3.5-2.43-8.89-5.59-13.36-6-5-.5-10,1.09-15,.67a19,19,0,0,1-8.42-2.8,3,3,0,0,0-1.22-.53A.91.91,0,0,0,163.32,154.59Z" style="fill:#fff"></path></g><path d="M203.52,151.09a18.89,18.89,0,0,1-1.39-1.34c-.88-.87-2.17-2.11-3.86-3.54a43.23,43.23,0,0,0-14.86-8.49,30.43,30.43,0,0,0-17-.42,25.22,25.22,0,0,0-4.86,1.88c-1.1.57-1.68.93-1.71.89s.13-.12.4-.31.66-.47,1.21-.76a23.12,23.12,0,0,1,4.86-2.06,30,30,0,0,1,17.21.28,41.75,41.75,0,0,1,14.95,8.71,48.3,48.3,0,0,1,3.76,3.68c.43.45.74.83.95,1.08A1.71,1.71,0,0,1,203.52,151.09Z" style="fill:#fff"></path><path d="M333.61,132.58c6.7,16.78-4.18,38-24.05,46s-40.85-.33-47.55-17.11,6-29.85,25.89-37.79c16.56-6.61,31.59-8.55,40.31,1.28C330,126.88,332.49,129.79,333.61,132.58Z" style="fill:#6f4439"></path><ellipse cx="296.26" cy="143.06" rx="37.47" ry="22.78" transform="translate(-31.93 120.09) rotate(-21.77)" style="fill:#ae7461"></ellipse><path d="M330.61,127.92c-.12.24-.49.36-1.06.39a8.7,8.7,0,0,1-1,0c-.39,0-.83,0-1.31,0a31.62,31.62,0,0,0-7.87.59,33.09,33.09,0,0,0-10.66,4.08,24.25,24.25,0,0,0-5,4.1c-1.65,1.69-3.3,3.7-5.15,5.85-.93,1.07-1.89,2.14-2.91,3.19-.52.52-1,1-1.59,1.53L292.39,149a45.8,45.8,0,0,1-6.71,4.6,38.44,38.44,0,0,1-6.71,3c-1.08.41-2.18.67-3.21,1a30.66,30.66,0,0,1-3.05.58,22.11,22.11,0,0,1-9.29-.43,7.88,7.88,0,0,1-2.35-1c-.5-.34-.72-.64-.67-.91.25-1.16,4.71-.77,11.05-3a49.33,49.33,0,0,0,21.16-15.05c1.77-2.05,3.6-4.21,5.68-6.19a28.16,28.16,0,0,1,7-5,32.06,32.06,0,0,1,7.13-2.54,28.94,28.94,0,0,1,6.5-.74,19.65,19.65,0,0,1,9.2,2c.49.28.91.54,1.27.78a6.29,6.29,0,0,1,.82.76C330.59,127.33,330.73,127.67,330.61,127.92Z" style="fill:#6f4439"></path><path d="M330.68,127.84c-.23-.13-.22,0-.51-.15a20.13,20.13,0,0,0-9.08-1.76,28.07,28.07,0,0,0-6.37.81,31.21,31.21,0,0,0-7,2.54,27.59,27.59,0,0,0-6.79,4.88,83,83,0,0,0-5.64,6.16,48.26,48.26,0,0,1-21.58,15.07c-5,1.66-8.8,1.69-10.37,2.06l.51.14a23.06,23.06,0,0,0,9.16.22c1-.12,2-.39,3-.61s2.09-.57,3.15-1a39.56,39.56,0,0,0,6.6-3.06,46.85,46.85,0,0,0,6.6-4.57l1.59-1.4c.53-.49,1.05-1,1.56-1.51,1-1,2-2.09,2.88-3.16,1.85-2.14,3.51-4.16,5.2-5.88a24.69,24.69,0,0,1,5.23-4.17,32.86,32.86,0,0,1,10.92-4,29.71,29.71,0,0,1,8-.35c.48.05.89,0,1.28,0s.72.06,1,.07C330.48,128.21,330.53,128,330.68,127.84Z" style="opacity:0.30000000000000004"></path><path d="M307.83,126.28a1.93,1.93,0,0,1-.52.26c-.34.16-.85.36-1.5.67a28.77,28.77,0,0,0-5,3.28,54.9,54.9,0,0,0-6.34,6.3c-2.25,2.51-4.6,5.41-7.41,8.16a30.54,30.54,0,0,1-4.45,3.62,31.36,31.36,0,0,1-4.71,2.53,51.29,51.29,0,0,1-8.57,2.8c-2.49.59-4.53,1-5.94,1.22l-1.62.27a2.1,2.1,0,0,1-.58.06,2.54,2.54,0,0,1,.56-.16l1.6-.37c1.4-.31,3.42-.74,5.89-1.38a53.42,53.42,0,0,0,8.47-2.88,31.39,31.39,0,0,0,4.62-2.52,30.69,30.69,0,0,0,4.37-3.56c2.77-2.72,5.13-5.6,7.41-8.11a52.4,52.4,0,0,1,6.47-6.27,26.74,26.74,0,0,1,5.19-3.18c.66-.28,1.19-.44,1.55-.57A3,3,0,0,1,307.83,126.28Z" style="fill:#263238"></path><path d="M328.14,128.07a12,12,0,0,1-1.61,0,43.19,43.19,0,0,0-4.35.25,34.35,34.35,0,0,0-13.54,4.4,27.94,27.94,0,0,0-6.09,5c-1.67,1.77-3.07,3.47-4.31,4.85a31.65,31.65,0,0,1-3.11,3.1,9.27,9.27,0,0,1-.94.74,1.69,1.69,0,0,1-.35.23,11.21,11.21,0,0,1,1.16-1.12,39,39,0,0,0,3-3.2c1.2-1.4,2.57-3.12,4.24-4.93a27.45,27.45,0,0,1,6.17-5.08A33,33,0,0,1,322.14,128a32.34,32.34,0,0,1,4.39-.08c.52,0,.92.06,1.2.09A1.25,1.25,0,0,1,328.14,128.07Z" style="fill:#263238"></path><path d="M332,135.86a3.27,3.27,0,0,1,0,.75,16.3,16.3,0,0,1-.38,2.13,27.14,27.14,0,0,1-3.08,7.33,40,40,0,0,1-7.57,9.05,40.76,40.76,0,0,1-5.55,4.25,59.33,59.33,0,0,1-6.64,3.46c-9.42,4.16-18.77,5.77-25.49,5.65a32.61,32.61,0,0,1-7.89-1,16.69,16.69,0,0,1-2.07-.64,4.63,4.63,0,0,1-.7-.28c0-.06,1,.3,2.82.73a35.09,35.09,0,0,0,7.84.79,64.8,64.8,0,0,0,25.27-5.75,59.11,59.11,0,0,0,6.59-3.42,41.13,41.13,0,0,0,5.5-4.18,40.23,40.23,0,0,0,7.57-8.88,28.76,28.76,0,0,0,3.21-7.19c.24-.9.38-1.61.47-2.09A4.18,4.18,0,0,1,332,135.86Z" style="fill:#263238"></path><g style="opacity:0.2"><path d="M309.36,121.75a1.68,1.68,0,0,0-1.07-.43,42.11,42.11,0,0,0-29.25,7C272,133.16,265.2,140,263,147.81c-.77,2.65,1.18,4.55,3.89,4,5.45-1.16,13.29-3.48,17.72-7.35,4.93-4.3,7.88-10.51,12.74-14.88A24.86,24.86,0,0,1,307.51,124a3.83,3.83,0,0,0,1.61-.7A1.18,1.18,0,0,0,309.36,121.75Z" style="fill:#fff"></path></g><g style="opacity:0.2"><path d="M279.26,162.75a1.7,1.7,0,0,0,1.12.44A43.89,43.89,0,0,0,311,156c7.37-5.06,14.49-12.2,16.86-20.34.81-2.77-1.23-4.76-4.05-4.16-5.7,1.19-13.9,3.59-18.54,7.62-5.15,4.48-8.25,11-13.34,15.52a26.16,26.16,0,0,1-10.68,5.76,3.88,3.88,0,0,0-1.68.71A1.24,1.24,0,0,0,279.26,162.75Z" style="fill:#fff"></path></g><path d="M326.52,138.46a3.75,3.75,0,0,1-.27.49l-.84,1.36A21.44,21.44,0,0,1,324,142.4c-.59.79-1.23,1.72-2.06,2.65l-1.27,1.48c-.45.51-1,1-1.47,1.53-1,1.08-2.18,2.1-3.4,3.21a60,60,0,0,1-8.76,6.15,59.11,59.11,0,0,1-9.78,4.34c-1.58.48-3.06,1-4.5,1.27-.72.16-1.4.35-2.07.47l-1.92.33c-1.23.23-2.35.3-3.34.4a20.57,20.57,0,0,1-2.52.15l-1.6,0a2,2,0,0,1-.56,0,1.9,1.9,0,0,1,.55-.08l1.6-.12a22.53,22.53,0,0,0,2.5-.24c1-.13,2.1-.22,3.31-.48l1.9-.35c.66-.13,1.34-.33,2.05-.5,1.42-.31,2.89-.81,4.45-1.3a56.6,56.6,0,0,0,18.38-10.41c1.22-1.08,2.41-2.09,3.41-3.14.5-.52,1-1,1.47-1.5l1.29-1.45c.84-.91,1.49-1.82,2.11-2.59s1.11-1.45,1.49-2l.93-1.31C326.38,138.6,326.5,138.45,326.52,138.46Z" style="fill:#fff"></path><path d="M263.68,73.77c8.19,13.78,1.59,33.92-14.73,43.63s-35.86,5.35-44.06-8.43S206,82,222.36,72.26c13.61-8.09,26.51-11.87,35.52-4.46C259.68,69.28,262.31,71.48,263.68,73.77Z" style="fill:#6f4439"></path><ellipse cx="232.37" cy="88.13" rx="33.26" ry="20.22" transform="translate(-12.4 131.14) rotate(-30.74)" style="fill:#ae7461"></ellipse><path d="M260.4,70.1c-.37,1.09-4.21.49-9.65,2.66a29.61,29.61,0,0,0-8.61,5.08,21.57,21.57,0,0,0-3.76,4.22c-1.2,1.7-2.36,3.68-3.69,5.82C234,89,233.33,90,232.57,91.1a37.7,37.7,0,0,1-2.44,3,39.91,39.91,0,0,1-5.31,5,35.18,35.18,0,0,1-5.53,3.6c-.91.5-1.85.88-2.72,1.28s-1.76.69-2.63.91a19.42,19.42,0,0,1-8.31.79,7,7,0,0,1-2.22-.65c-.49-.26-.72-.53-.71-.79.07-1.18,4-1.57,9.15-4.46a44.46,44.46,0,0,0,16.22-16.07,73.34,73.34,0,0,1,4.15-6.24,25.5,25.5,0,0,1,5.52-5.37,27.38,27.38,0,0,1,11.67-4.74,17.14,17.14,0,0,1,8.44.61c.48.19.88.37,1.23.55a5.67,5.67,0,0,1,.82.59C260.32,69.53,260.48,69.84,260.4,70.1Z" style="fill:#6f4439"></path><path d="M260.45,70c-.22-.08-.19,0-.46-.06a17.84,17.84,0,0,0-8.21-.28,25.22,25.22,0,0,0-5.48,1.58,28,28,0,0,0-5.77,3.2,24.58,24.58,0,0,0-5.28,5.21c-1.53,2-2.82,4.13-4.1,6.18a42.78,42.78,0,0,1-16.83,16.21c-4.16,2.14-7.48,2.69-8.81,3.24l.47,0a20.31,20.31,0,0,0,8.06-1.08c.84-.23,1.66-.61,2.54-.94s1.76-.8,2.63-1.3a36.15,36.15,0,0,0,5.37-3.59,42.36,42.36,0,0,0,5.15-4.93c.39-.48.8-1,1.2-1.44s.79-1,1.16-1.54c.74-1,1.43-2.11,2.09-3.17,1.32-2.13,2.5-4.14,3.75-5.88a22,22,0,0,1,4-4.38A28.34,28.34,0,0,1,246.5,74a28,28,0,0,1,4.45-2,26.4,26.4,0,0,1,7-1.42c.43,0,.78-.11,1.12-.15s.65,0,.89-.07C260.32,70.37,260.34,70.16,260.45,70Z" style="opacity:0.30000000000000004"></path><path d="M240.2,71.82s-.58.4-1.63,1.1a25.7,25.7,0,0,0-4,3.57,49.76,49.76,0,0,0-4.69,6.41c-1.62,2.51-3.28,5.38-5.36,8.18a26.49,26.49,0,0,1-3.41,3.79,27.13,27.13,0,0,1-3.78,2.87,44.27,44.27,0,0,1-7.13,3.64c-2.11.86-3.84,1.47-5,1.89l-1.39.45a2.62,2.62,0,0,1-.5.13s.15-.1.46-.23l1.36-.54c1.17-.48,2.89-1.14,5-2a47.89,47.89,0,0,0,7-3.7,26.48,26.48,0,0,0,7-6.57c2-2.77,3.72-5.62,5.37-8.14a46.71,46.71,0,0,1,4.82-6.39,22.93,22.93,0,0,1,4.11-3.49c.55-.34,1-.56,1.29-.72S240.19,71.8,240.2,71.82Z" style="fill:#263238"></path><path d="M258.25,70.57a8.12,8.12,0,0,1-1.4.27c-.9.15-2.2.41-3.78.83a30.67,30.67,0,0,0-11.25,5.74c-3.85,3.16-5.95,7.31-7.76,10a28.82,28.82,0,0,1-2.3,3.15,10.52,10.52,0,0,1-.73.78c-.17.17-.27.25-.28.24a10.49,10.49,0,0,1,.85-1.15,37,37,0,0,0,2.15-3.21c.85-1.4,1.82-3.1,3-4.92A24.08,24.08,0,0,1,241.49,77,29.36,29.36,0,0,1,253,71.32a28.68,28.68,0,0,1,3.84-.68A7,7,0,0,1,258.25,70.57Z" style="fill:#263238"></path><path d="M262.74,76.86a4.46,4.46,0,0,1,.07.67,14.32,14.32,0,0,1,0,1.92,24.53,24.53,0,0,1-1.68,6.86,35.43,35.43,0,0,1-5.39,9,36.56,36.56,0,0,1-4.27,4.5,51.25,51.25,0,0,1-5.36,4,56,56,0,0,1-21.57,8.47,28.45,28.45,0,0,1-7.06.24,14.73,14.73,0,0,1-1.9-.29,2.77,2.77,0,0,1-.65-.15c0-.06.91.12,2.57.23a30.92,30.92,0,0,0,7-.39,57.52,57.52,0,0,0,21.35-8.55,53,53,0,0,0,5.3-3.9A37.27,37.27,0,0,0,255.34,95a35.92,35.92,0,0,0,5.41-8.82,25.87,25.87,0,0,0,1.83-6.74C262.76,77.79,262.69,76.87,262.74,76.86Z" style="fill:#263238"></path><g style="opacity:0.2"><path d="M240.91,67.63a1.46,1.46,0,0,0-1-.22,37.23,37.23,0,0,0-24.68,10.16c-5.51,5.23-10.52,12.18-11.42,19.33-.3,2.43,1.68,3.82,4,2.95C212.41,98.08,219,95,222.31,91c3.73-4.45,5.45-10.3,9.11-14.81a22.22,22.22,0,0,1,8.19-6.27,3.33,3.33,0,0,0,1.31-.83A1,1,0,0,0,240.91,67.63Z" style="fill:#fff"></path></g><g style="opacity:0.2"><path d="M220.2,107.74a1.6,1.6,0,0,0,1,.24A39,39,0,0,0,247,97.43c5.77-5.46,11-12.7,12-20.17.32-2.54-1.74-4-4.13-3.08-4.84,1.83-11.69,5.07-15.2,9.25-3.9,4.64-5.72,10.74-9.56,15.44a23.07,23.07,0,0,1-8.56,6.53,3.58,3.58,0,0,0-1.38.86A1.1,1.1,0,0,0,220.2,107.74Z" style="fill:#fff"></path></g><path d="M258.27,79.9a1.62,1.62,0,0,1-.16.47c-.15.36-.33.79-.54,1.32a21.62,21.62,0,0,1-1,2c-.42.77-.84,1.68-1.44,2.61l-.91,1.48c-.32.51-.7,1-1.07,1.55-.73,1.08-1.62,2.14-2.54,3.28a54,54,0,0,1-6.83,6.61,53.33,53.33,0,0,1-8,5.17c-1.31.63-2.55,1.27-3.77,1.73-.6.24-1.18.5-1.75.69l-1.64.55c-1,.38-2,.59-2.87.82a22.13,22.13,0,0,1-2.2.48l-1.4.23a2.26,2.26,0,0,1-.49,0,1.55,1.55,0,0,1,.47-.15l1.38-.33c.6-.13,1.33-.3,2.16-.56s1.81-.49,2.83-.89l1.62-.57c.56-.21,1.13-.47,1.72-.72,1.2-.47,2.42-1.12,3.72-1.76a55.37,55.37,0,0,0,7.88-5.15,54.43,54.43,0,0,0,6.79-6.51c.92-1.12,1.83-2.16,2.56-3.23.37-.52.76-1,1.08-1.51s.63-1,.93-1.45c.62-.91,1.06-1.8,1.5-2.56s.77-1.42,1-2,.46-.92.64-1.27A2.29,2.29,0,0,1,258.27,79.9Z" style="fill:#fff"></path><path d="M279.16,227.28c-1.79,18.38-21.64,32.56-43.41,30.44s-36.93-19.49-35.14-37.87,19.48-24.27,41.25-22.15c18.14,1.77,32.7,7.06,36,20.09C278.52,220.39,279.46,224.22,279.16,227.28Z" style="fill:#6f4439"></path><ellipse cx="240.33" cy="219.26" rx="23.29" ry="38.3" transform="translate(-1.24 437.14) rotate(-84.42)" style="fill:#ae7461"></ellipse><path d="M278.63,221.64c-.21.16-.61.09-1.14-.16-.26-.12-.55-.29-.89-.49s-.74-.4-1.16-.66a32.85,32.85,0,0,0-7.42-3.19,33.78,33.78,0,0,0-11.62-1.32,25.39,25.39,0,0,0-6.54,1.34c-2.3.77-4.74,1.82-7.43,2.9-1.34.53-2.72,1.06-4.14,1.53-.71.23-1.42.44-2.15.64l-2.13.52a46.63,46.63,0,0,1-8.24,1,39.78,39.78,0,0,1-7.51-.38c-1.17-.14-2.29-.41-3.36-.63s-2.09-.53-3-.9a22.94,22.94,0,0,1-8.24-4.72,8.23,8.23,0,0,1-1.65-2c-.3-.54-.37-.92-.2-1.12.76-.92,4.61,1.55,11.43,2.5a50.11,50.11,0,0,0,26.33-3.71c2.58-1,5.25-2.13,8.06-3a28.65,28.65,0,0,1,8.62-1.22,32,32,0,0,1,7.66,1,29,29,0,0,1,6.23,2.36,20,20,0,0,1,7.42,6.1c.32.48.58.91.79,1.3a6.36,6.36,0,0,1,.4,1.07Q279,221.4,278.63,221.64Z" style="fill:#6f4439"></path><path d="M278.73,221.6c-.15-.23-.2-.1-.39-.37a20.52,20.52,0,0,0-7.42-5.86,29.34,29.34,0,0,0-6.17-2.27,32.16,32.16,0,0,0-7.54-1,28.59,28.59,0,0,0-8.45,1.24c-2.77.81-5.43,1.91-8,2.94a49.21,49.21,0,0,1-26.67,3.56c-5.32-.85-8.78-2.6-10.38-3l.39.37a23.74,23.74,0,0,0,8.22,4.5c.94.35,1.95.56,3,.85s2.17.46,3.33.59a39.81,39.81,0,0,0,7.42.32,47.42,47.42,0,0,0,8.14-1.05l2.1-.52c.72-.19,1.42-.41,2.13-.64,1.4-.46,2.76-1,4.1-1.52,2.68-1.07,5.14-2.13,7.48-2.89a25.35,25.35,0,0,1,6.71-1.34,32.81,32.81,0,0,1,6.33.27,31.54,31.54,0,0,1,5.47,1.22,30.13,30.13,0,0,1,7.42,3.43c.41.27.8.42,1.14.62s.63.4.88.54C278.37,221.84,278.53,221.65,278.73,221.6Z" style="opacity:0.30000000000000004"></path><path d="M258.72,209.46a2.77,2.77,0,0,1-.6,0c-.38,0-.94-.08-1.67-.1a28.89,28.89,0,0,0-6.12.61,56,56,0,0,0-8.72,2.74c-3.22,1.23-6.72,2.75-10.55,3.93a30.81,30.81,0,0,1-5.75,1.19,31.35,31.35,0,0,1-5.46.09,51.8,51.8,0,0,1-9.09-1.48c-2.55-.63-4.57-1.24-6-1.68l-1.6-.51a2.27,2.27,0,0,1-.55-.22,4,4,0,0,1,.57.12l1.64.42c1.41.37,3.45.93,6,1.51a54.83,54.83,0,0,0,9,1.36,29.76,29.76,0,0,0,11-1.3c3.8-1.16,7.3-2.67,10.54-3.88a53.07,53.07,0,0,1,8.82-2.65,26,26,0,0,1,6.2-.45c.73,0,1.29.15,1.68.2A2.17,2.17,0,0,1,258.72,209.46Z" style="fill:#263238"></path><path d="M276.31,220.62a12.88,12.88,0,0,1-1.47-.72,43.92,43.92,0,0,0-4.07-1.82,35.14,35.14,0,0,0-14.37-2.37,28.31,28.31,0,0,0-7.85,1.65c-2.35.82-4.42,1.7-6.19,2.37a32.08,32.08,0,0,1-4.28,1.37c-.51.13-.93.18-1.2.23a2,2,0,0,1-.43,0,14.56,14.56,0,0,1,1.58-.47,39,39,0,0,0,4.19-1.51c1.75-.71,3.8-1.63,6.17-2.48a27.87,27.87,0,0,1,8-1.72,33.76,33.76,0,0,1,14.52,2.55,32.28,32.28,0,0,1,4,2c.47.26.81.49,1,.64S276.32,220.6,276.31,220.62Z" style="fill:#263238"></path><path d="M276.18,229.51a3.87,3.87,0,0,1-.39.67,19.42,19.42,0,0,1-1.34,1.75,28.21,28.21,0,0,1-6.25,5.21,40.93,40.93,0,0,1-11.12,4.66,42.18,42.18,0,0,1-7,1.25,59.25,59.25,0,0,1-7.66,0c-10.49-.64-19.74-3.57-25.79-6.83a33.33,33.33,0,0,1-6.71-4.59,16.5,16.5,0,0,1-1.57-1.55,4.62,4.62,0,0,1-.51-.58c.05-.05.76.74,2.21,2a35.75,35.75,0,0,0,6.75,4.41,66.32,66.32,0,0,0,25.65,6.64,60,60,0,0,0,7.59,0,42.65,42.65,0,0,0,6.95-1.21A41.51,41.51,0,0,0,268,236.82a29.49,29.49,0,0,0,6.29-5c.64-.71,1.1-1.28,1.41-1.69A4.56,4.56,0,0,1,276.18,229.51Z" style="fill:#263238"></path><g style="opacity:0.2"><path d="M262.23,206.06a1.71,1.71,0,0,0-.77-.89,43,43,0,0,0-29.83-7.4c-8.68,1.11-18.07,4.14-23.78,10.16-1.94,2-1,4.69,1.67,5.43,5.5,1.51,13.7,3.09,19.54,1.66,6.5-1.6,12.09-5.84,18.56-7.54a25.47,25.47,0,0,1,11.87-.23,3.86,3.86,0,0,0,1.78.13A1.22,1.22,0,0,0,262.23,206.06Z" style="fill:#fff"></path></g><g style="opacity:0.2"><path d="M215.65,229.15a1.79,1.79,0,0,0,.81.93,44.92,44.92,0,0,0,31.14,7.81c9.06-1.13,18.88-4.27,24.86-10.54,2-2.14,1.12-4.9-1.73-5.69-5.74-1.59-14.3-3.26-20.41-1.78-6.78,1.65-12.64,6.07-19.4,7.82a26.65,26.65,0,0,1-12.4.22,3.93,3.93,0,0,0-1.86-.14A1.26,1.26,0,0,0,215.65,229.15Z" style="fill:#fff"></path></g><path d="M270,229.29a3.56,3.56,0,0,1-.47.32l-1.41.84-1,.59c-.38.21-.81.41-1.26.63-.91.44-1.93,1-3.12,1.44l-1.85.75c-.64.25-1.34.46-2,.7-1.41.51-3,.88-4.59,1.31a56.41,56.41,0,0,1-21.76.82c-1.66-.3-3.24-.55-4.68-1-.73-.19-1.44-.33-2.1-.54l-1.9-.61c-1.22-.36-2.28-.83-3.22-1.19-.47-.2-.91-.36-1.3-.54l-1.06-.51-1.47-.73a2.32,2.32,0,0,1-.49-.29,2.19,2.19,0,0,1,.54.19l1.5.64,1.08.48c.39.16.84.31,1.31.48.94.34,2,.79,3.22,1.12l1.9.57c.66.2,1.37.33,2.09.51,1.43.39,3,.62,4.65.91a58.18,58.18,0,0,0,21.58-.82c1.62-.41,3.17-.76,4.57-1.25.71-.24,1.4-.43,2-.67l1.85-.72c1.2-.42,2.22-.94,3.13-1.35.46-.21.89-.39,1.27-.59l1-.55,1.45-.75A2,2,0,0,1,270,229.29Z" style="fill:#fff"></path></g></svg>
